<?xml version="1.0" encoding="utf-8"?>
<!-- Generator: Adobe Illustrator 13.0.0, SVG Export Plug-In . SVG Version: 6.00 Build 14948)  -->
<!DOCTYPE svg PUBLIC "-//W3C//DTD SVG 1.1//EN" "http://www.w3.org/Graphics/SVG/1.1/DTD/svg11.dtd">
<svg version="1.1" id="Layer_1" xmlns="http://www.w3.org/2000/svg" xmlns:xlink="http://www.w3.org/1999/xlink" x="0px" y="0px"
	 width="800px" height="600px" viewBox="0 0 800 600" enable-background="new 0 0 800 600" xml:space="preserve">
<g id="Your_Icon">
	<path d="M50.203,48.59c-7.262,0-13.169,5.907-13.169,13.168s5.908,13.169,13.169,13.169c7.26,0,13.168-5.908,13.168-13.169
		S57.462,48.59,50.203,48.59z M50.203,67.521c-3.183,0-5.762-2.579-5.762-5.762s2.579-5.761,5.762-5.761
		c3.182,0,5.76,2.578,5.76,5.761S53.384,67.521,50.203,67.521z M68.309,39.147h-4.983l-1.766-3.19
		c-1.16-2.095-3.365-3.395-5.761-3.395H44.618c-2.394,0-4.599,1.299-5.759,3.393l-1.77,3.193H20.778v-3.822H9.255v3.822H7.404
		c-3.636,0-6.584,2.948-6.584,6.584v32.922c0,3.636,2.948,6.585,6.584,6.585H68.31c3.635,0,6.584-2.948,6.584-6.585V45.731
		C74.894,42.095,71.945,39.147,68.309,39.147z M17.486,75.074c0,1.363-1.105,2.469-2.469,2.469c-1.364,0-2.47-1.105-2.47-2.469
		V50.236c0-1.364,1.105-2.469,2.47-2.469c1.364,0,2.469,1.105,2.469,2.469V75.074z M50.203,79.865
		c-10.001,0-18.107-8.105-18.107-18.106c0-10,8.106-18.106,18.107-18.106c10,0,18.106,8.106,18.106,18.106
		S60.203,79.865,50.203,79.865z"/>
</g>
<g>
	<path d="M24.087,0.325c1.233,0,2.346,0.176,3.339,0.527c0.993,0.351,1.841,0.839,2.543,1.461c0.703,0.623,1.243,1.354,1.619,2.192
		c0.376,0.839,0.564,1.746,0.564,2.72c0,0.851-0.096,1.6-0.287,2.248c-0.191,0.647-0.469,1.212-0.833,1.693
		s-0.808,0.888-1.332,1.221c-0.524,0.333-1.119,0.61-1.785,0.833c1.603,0.506,2.799,1.276,3.589,2.312
		c0.789,1.036,1.184,2.337,1.184,3.903c0,1.332-0.247,2.51-0.74,3.534s-1.159,1.884-1.998,2.581
		c-0.838,0.697-1.81,1.224-2.914,1.582c-1.104,0.358-2.272,0.537-3.506,0.537c-1.344,0-2.516-0.154-3.515-0.462
		s-1.869-0.765-2.609-1.369c-0.74-0.604-1.369-1.344-1.887-2.22s-0.962-1.887-1.332-3.034l2.017-0.833
		c0.345-0.148,0.696-0.222,1.054-0.222c0.321,0,0.607,0.068,0.86,0.204c0.253,0.136,0.447,0.333,0.583,0.592
		c0.222,0.432,0.465,0.857,0.73,1.276c0.265,0.419,0.583,0.792,0.953,1.119c0.37,0.327,0.805,0.592,1.305,0.795
		c0.499,0.204,1.094,0.306,1.785,0.306c0.777,0,1.455-0.126,2.035-0.379s1.064-0.583,1.453-0.99c0.388-0.407,0.678-0.86,0.869-1.36
		s0.287-1.002,0.287-1.508c0-0.641-0.068-1.224-0.204-1.748c-0.136-0.524-0.419-0.971-0.851-1.341s-1.052-0.66-1.859-0.87
		c-0.808-0.209-1.89-0.314-3.247-0.314v-3.274c1.122,0,2.053-0.099,2.793-0.296c0.74-0.197,1.329-0.472,1.767-0.823
		c0.438-0.352,0.743-0.774,0.916-1.268c0.172-0.493,0.259-1.036,0.259-1.628c0-1.27-0.345-2.229-1.036-2.876
		c-0.69-0.648-1.634-0.972-2.83-0.972c-1.085,0-1.986,0.287-2.701,0.859c-0.715,0.573-1.215,1.309-1.499,2.208
		c-0.148,0.468-0.352,0.804-0.61,1.007C18.759,8.45,18.419,8.552,18,8.552c-0.197,0-0.407-0.018-0.629-0.055l-2.405-0.418
		c0.185-1.283,0.542-2.409,1.073-3.377c0.53-0.968,1.193-1.776,1.989-2.424c0.795-0.647,1.708-1.135,2.738-1.462
		C21.796,0.488,22.903,0.325,24.087,0.325z"/>
	<path d="M46.379,10.666c1.011,0,1.995,0.167,2.951,0.5c0.956,0.333,1.797,0.836,2.525,1.508c0.728,0.672,1.313,1.508,1.757,2.507
		s0.666,2.165,0.666,3.497c0,1.246-0.229,2.414-0.685,3.505c-0.456,1.092-1.098,2.044-1.924,2.858
		c-0.827,0.814-1.822,1.456-2.988,1.924c-1.166,0.469-2.451,0.703-3.857,0.703c-1.431,0-2.713-0.228-3.848-0.685
		c-1.135-0.456-2.103-1.094-2.905-1.915s-1.415-1.807-1.841-2.96c-0.425-1.153-0.638-2.433-0.638-3.839
		c0-1.258,0.256-2.55,0.768-3.875c0.511-1.326,1.304-2.704,2.377-4.135l6.383-8.566c0.222-0.296,0.545-0.548,0.971-0.758
		c0.425-0.209,0.916-0.314,1.471-0.314h4.07l-7.937,9.712c-0.173,0.21-0.336,0.407-0.49,0.592c-0.154,0.185-0.305,0.376-0.453,0.573
		c0.518-0.259,1.076-0.462,1.674-0.61C45.025,10.74,45.676,10.666,46.379,10.666z M39.978,18.973c0,0.74,0.102,1.415,0.305,2.026
		c0.204,0.61,0.505,1.131,0.906,1.563c0.401,0.432,0.897,0.768,1.489,1.008c0.592,0.241,1.277,0.361,2.054,0.361
		c0.728,0,1.396-0.123,2.007-0.37c0.61-0.247,1.134-0.592,1.572-1.036c0.438-0.444,0.78-0.965,1.027-1.563
		c0.247-0.598,0.37-1.249,0.37-1.952c0-0.765-0.118-1.453-0.352-2.063c-0.234-0.61-0.567-1.128-0.999-1.554
		c-0.432-0.426-0.95-0.75-1.554-0.972c-0.604-0.222-1.27-0.333-1.998-0.333c-0.728,0-1.387,0.124-1.979,0.37
		c-0.592,0.247-1.101,0.589-1.526,1.027c-0.426,0.438-0.752,0.956-0.98,1.554C40.092,17.638,39.978,18.282,39.978,18.973z"/>
	<path d="M73.74,2.563c0,0.654-0.207,1.184-0.62,1.591c-0.414,0.407-1.101,0.61-2.063,0.61h-7.363l-0.962,5.587
		c1.208-0.247,2.312-0.37,3.312-0.37c1.406,0,2.642,0.21,3.709,0.629c1.067,0.419,1.964,0.999,2.692,1.739
		c0.728,0.74,1.276,1.606,1.646,2.599c0.37,0.993,0.555,2.063,0.555,3.21c0,1.418-0.25,2.713-0.75,3.885
		c-0.5,1.172-1.193,2.174-2.081,3.006s-1.939,1.477-3.154,1.933c-1.215,0.457-2.538,0.685-3.968,0.685
		c-0.839,0-1.634-0.086-2.387-0.259c-0.752-0.173-1.458-0.404-2.118-0.694c-0.66-0.29-1.271-0.623-1.832-0.999
		c-0.561-0.376-1.063-0.774-1.508-1.193l1.406-1.942c0.296-0.419,0.69-0.629,1.184-0.629c0.308,0,0.62,0.099,0.934,0.296
		s0.681,0.414,1.101,0.647c0.419,0.234,0.907,0.45,1.462,0.647c0.555,0.198,1.227,0.296,2.016,0.296c0.839,0,1.579-0.135,2.22-0.407
		c0.641-0.271,1.175-0.65,1.6-1.138c0.426-0.487,0.746-1.067,0.962-1.739c0.216-0.672,0.324-1.403,0.324-2.192
		c0-1.456-0.423-2.593-1.268-3.414c-0.845-0.82-2.087-1.23-3.728-1.23c-1.295,0-2.597,0.234-3.904,0.703l-2.849-0.814l2.22-12.987
		H73.74V2.563z"/>
</g>
</svg>
