<?xml version="1.0" encoding="utf-8"?>
<!-- Generator: Adobe Illustrator 13.0.0, SVG Export Plug-In . SVG Version: 6.00 Build 14948)  -->
<!DOCTYPE svg PUBLIC "-//W3C//DTD SVG 1.1//EN" "http://www.w3.org/Graphics/SVG/1.1/DTD/svg11.dtd">
<svg version="1.1" id="Layer_1" xmlns="http://www.w3.org/2000/svg" xmlns:xlink="http://www.w3.org/1999/xlink" x="0px" y="0px"
	 width="300px" height="100px" viewBox="0 0 300 100" enable-background="new 0 0 300 100" xml:space="preserve">
<view  viewBox="0 0 76 35" id="atw" zoomAndPan="magnify" preserveAspectRatio="xMidYMid meet"></view>
<g>
	<path d="M72.822,90.613v8.627h-9.12h-2h-6.148c-1.713,0-3.059-0.257-4.037-0.771c-0.979-0.514-1.716-1.554-2.203-3.12L47.7,89.991
		c-1.909,1.713-3.78,3.219-5.615,4.515c-1.83,1.294-3.726,2.384-5.69,3.267c-1.959,0.881-4.04,1.542-6.238,1.979
		c-2.206,0.443-4.652,0.665-7.342,0.665c-3.178,0-6.117-0.432-8.808-1.288c-2.691-0.86-5.003-2.15-6.937-3.869
		c-1.932-1.719-3.441-3.857-4.518-6.411s-1.614-5.522-1.614-8.911c0-2.848,0.747-5.661,2.239-8.437
		c1.493-2.771,3.977-5.276,7.454-7.512c3.475-2.232,8.096-4.086,13.874-5.56c5.775-1.475,12.943-2.212,21.507-2.212v-4.438
		c0-5.08-1.063-8.839-3.193-11.281c-2.128-2.44-5.224-3.661-9.285-3.661c-2.938,0-5.384,0.342-7.342,1.027
		c-1.959,0.688-3.66,1.459-5.102,2.313c-1.431,0.85-2.764,1.621-3.999,2.312c-1.225,0.684-2.57,1.027-4.038,1.024
		c-1.223,0-2.276-0.318-3.156-0.955c-0.881-0.636-1.593-1.418-2.129-2.349l-3.307-5.799c8.662-7.927,19.113-11.895,31.347-11.895
		c4.401,0,8.329,0.723,11.782,2.166c3.45,1.444,6.374,3.45,8.772,6.02c2.401,2.572,4.224,5.642,5.469,9.214
		c1.247,3.569,1.871,7.488,1.871,11.746V85.03c1.672,0.298,2.964,0.527,3.87,0.694c0.905,0.166,1.431,0.26,1.581,0.285
		C71.599,86.545,72.822,88.077,72.822,90.613z M46.008,67.31c-5.288,0-9.704,0.33-13.25,0.998c-3.547,0.666-6.398,1.514-8.551,2.551
		c-2.157,1.036-3.686,2.241-4.588,3.624c-0.902,1.383-1.357,2.881-1.357,4.509c0,3.208,0.942,5.499,2.825,6.879
		c1.882,1.378,4.34,2.069,7.377,2.069c1.859,0,3.572-0.169,5.142-0.505c1.568-0.336,3.046-0.844,4.44-1.521
		c1.395-0.672,2.74-1.5,4.038-2.489c1.296-0.984,2.606-2.156,3.926-3.505L46.008,67.31z"/>
	<path d="M80.486,95.022c-3.523-3.697-5.284-8.799-5.284-15.307V37.655h-7.634c-0.979,0-1.823-0.318-2.533-0.954
		s-1.065-1.59-1.065-2.863v-7.197l12.112-1.982l3.817-20.557c0.195-0.979,0.648-1.737,1.359-2.274
		c0.709-0.539,1.602-0.808,2.679-0.808h9.395v23.709h19.822l13.118,14.075l-32.94-1.153v40.815c0,2.353,0.587,4.185,1.762,5.51
		c1.174,1.321,2.74,1.979,4.697,1.979c1.126,0,2.068-0.135,2.827-0.403c0.759-0.271,1.419-0.551,1.982-0.846
		c0.563-0.292,1.065-0.574,1.505-0.841c0.439-0.266,0.88-0.403,1.32-0.403c0.539,0,0.979,0.135,1.322,0.403
		c0.342,0.27,0.709,0.674,1.101,1.212l5.433,8.811c-2.644,2.203-5.678,3.866-9.103,4.993c-3.426,1.124-6.974,1.688-10.644,1.688
		C89.025,100.564,84.011,98.718,80.486,95.022z"/>
	<path d="M225.803,24.078v8.631c0,2.536-1.224,4.068-3.674,4.591c-1.128,0.2-0.697,0.137-6.946,1.242l-19.273,60.853h-14.607
		c-1.566,0-2.692-1.077-3.377-3.23l-13.579-43.531c-0.44-1.419-0.846-2.852-1.213-4.294c-0.365-1.444-0.672-2.876-0.917-4.295
		c-0.292,1.468-0.612,2.927-0.954,4.368c-0.345,1.442-0.733,2.898-1.177,4.366l-13.728,43.386c-0.688,2.153-2.009,3.23-3.963,3.23
		h-13.877l-19.274-60.853c-6.239-1.102-5.808-1.04-6.937-1.242c-2.451-0.523-3.674-2.055-3.674-4.591l-15.815-8.555l21.844-0.073
		l0,0h14.387c0.009,0,0.018,0,0.03,0h16.241v8.631c0,2.536-1.223,4.068-3.674,4.591c-0.914,0.163-1.13,0.212-4.524,0.813
		l7.932,29.566c0.587,2.203,1.063,4.356,1.431,6.459c0.368,2.106,0.723,4.21,1.065,6.312c0.538-2.105,1.113-4.208,1.725-6.312
		c0.612-2.103,1.26-4.259,1.946-6.459l12.48-40.374c0.295-0.979,0.882-1.786,1.763-2.422s1.908-0.956,3.082-0.956h8.002
		c1.324,0,2.422,0.319,3.307,0.956c0.881,0.636,1.465,1.443,1.762,2.422l12.331,41.109c0.637,2.104,1.212,4.144,1.726,6.129
		c0.514,1.979,1.016,3.976,1.505,5.982c0.342-2.104,0.722-4.208,1.138-6.312s0.941-4.28,1.58-6.534l8.165-29.438
		c-4.097-0.725-4.283-0.771-5.262-0.945c-2.449-0.523-3.674-2.055-3.674-4.591v-8.631h16.894c0.009,0,0.016,0,0.027,0h13.726l0,0
		H225.803z"/>
</g>
</svg>
