<?xml version="1.0" encoding="utf-8"?>
<!-- Generator: Adobe Illustrator 13.0.0, SVG Export Plug-In . SVG Version: 6.00 Build 14948)  -->
<!DOCTYPE svg PUBLIC "-//W3C//DTD SVG 1.1//EN" "http://www.w3.org/Graphics/SVG/1.1/DTD/svg11.dtd">
<svg version="1.1" id="Layer_1" xmlns="http://www.w3.org/2000/svg" xmlns:xlink="http://www.w3.org/1999/xlink" x="0px" y="0px"
	 width="300px" height="100px" viewBox="0 0 300 100" preserveAspectRatio="xMidYMid meet">
	 <view id='atw' viewBox='0 0 76 35' />
<g>
	<path d="M24.441,30.313v2.821h-2.982h-0.654h-2.01c-0.56,0-1-0.084-1.32-0.252c-0.32-0.168-0.561-0.508-0.72-1.02l-0.528-1.752
		c-0.624,0.56-1.236,1.052-1.836,1.476c-0.598,0.423-1.218,0.779-1.86,1.068c-0.641,0.288-1.321,0.504-2.04,0.647
		c-0.721,0.145-1.521,0.217-2.4,0.217c-1.039,0-2-0.141-2.88-0.421c-0.88-0.281-1.636-0.703-2.268-1.265
		c-0.632-0.562-1.125-1.261-1.477-2.096s-0.528-1.806-0.528-2.914c0-0.931,0.244-1.851,0.732-2.758
		c0.488-0.906,1.3-1.725,2.437-2.456c1.136-0.73,2.647-1.336,4.536-1.818c1.888-0.482,4.232-0.723,7.032-0.723v-1.451
		c0-1.661-0.348-2.89-1.044-3.688c-0.696-0.798-1.708-1.197-3.036-1.197c-0.96,0-1.76,0.112-2.4,0.336
		c-0.641,0.225-1.197,0.477-1.668,0.756c-0.468,0.278-0.904,0.53-1.308,0.756c-0.4,0.224-0.84,0.336-1.32,0.335
		c-0.4,0-0.744-0.104-1.032-0.312s-0.521-0.464-0.696-0.768l-1.081-1.896c2.832-2.592,6.249-3.889,10.249-3.889
		c1.439,0,2.723,0.236,3.852,0.708c1.128,0.472,2.084,1.128,2.868,1.968c0.785,0.841,1.381,1.845,1.788,3.013
		c0.408,1.167,0.612,2.448,0.612,3.84v10.91c0.547,0.097,0.969,0.172,1.265,0.227c0.296,0.054,0.468,0.085,0.517,0.093
		C24.041,28.983,24.441,29.484,24.441,30.313z M15.674,22.694c-1.729,0-3.173,0.108-4.332,0.326
		c-1.16,0.218-2.092,0.495-2.796,0.834c-0.705,0.339-1.205,0.733-1.5,1.185s-0.444,0.942-0.444,1.474
		c0,1.049,0.308,1.798,0.924,2.249c0.615,0.451,1.419,0.677,2.412,0.677c0.608,0,1.168-0.055,1.681-0.165s0.996-0.276,1.452-0.497
		c0.456-0.22,0.896-0.491,1.32-0.814c0.424-0.322,0.852-0.705,1.284-1.146L15.674,22.694z"/>
	<path d="M26.947,31.755c-1.152-1.209-1.728-2.877-1.728-5.005V12.998h-2.496c-0.32,0-0.596-0.104-0.828-0.312
		c-0.232-0.208-0.348-0.52-0.348-0.936V9.397l3.96-0.648l1.248-6.721c0.064-0.32,0.212-0.568,0.444-0.744
		c0.232-0.176,0.524-0.264,0.876-0.264h3.072v7.752h6.481l4.289,4.602l-10.77-0.377v13.345c0,0.769,0.192,1.368,0.576,1.801
		c0.384,0.432,0.896,0.647,1.536,0.647c0.368,0,0.676-0.044,0.924-0.132s0.464-0.18,0.648-0.276
		c0.184-0.096,0.348-0.188,0.492-0.275s0.288-0.132,0.432-0.132c0.176,0,0.32,0.044,0.432,0.132c0.112,0.088,0.232,0.22,0.36,0.396
		l1.776,2.881c-0.864,0.72-1.856,1.264-2.976,1.632s-2.28,0.552-3.48,0.552C29.739,33.567,28.099,32.963,26.947,31.755z"/>
	<path d="M74.459,8.559v2.822c0,0.829-0.4,1.33-1.201,1.501c-0.369,0.065-0.228,0.045-2.271,0.406l-6.302,19.896h-4.776
		c-0.512,0-0.88-0.352-1.104-1.056l-4.44-14.233c-0.144-0.464-0.276-0.932-0.396-1.404c-0.12-0.472-0.22-0.94-0.3-1.404
		c-0.096,0.48-0.2,0.957-0.312,1.428c-0.113,0.472-0.24,0.948-0.385,1.428l-4.488,14.185c-0.225,0.704-0.657,1.056-1.296,1.056
		h-4.537l-6.302-19.896c-2.04-0.36-1.899-0.34-2.268-0.406c-0.801-0.171-1.201-0.672-1.201-1.501l-5.171-2.797l7.142-0.024v0h4.704
		c0.003,0,0.006,0,0.01,0h5.31v2.822c0,0.829-0.4,1.33-1.201,1.501c-0.299,0.053-0.37,0.069-1.479,0.266l2.593,9.667
		c0.192,0.72,0.348,1.424,0.468,2.112c0.12,0.688,0.236,1.376,0.348,2.063c0.176-0.688,0.364-1.376,0.564-2.063
		c0.2-0.688,0.412-1.393,0.636-2.112l4.081-13.201c0.096-0.32,0.288-0.584,0.576-0.792s0.624-0.312,1.008-0.312h2.616
		c0.433,0,0.792,0.104,1.081,0.312c0.288,0.208,0.479,0.472,0.576,0.792l4.032,13.441c0.208,0.688,0.396,1.355,0.564,2.004
		c0.168,0.647,0.332,1.3,0.492,1.956c0.112-0.688,0.236-1.376,0.372-2.064c0.136-0.688,0.308-1.399,0.517-2.136l2.669-9.625
		c-1.339-0.237-1.4-0.252-1.72-0.309c-0.801-0.171-1.201-0.672-1.201-1.501V8.559h5.523c0.003,0,0.005,0,0.009,0h4.488v0H74.459z"/>
</g>
</svg>
