<svg xmlns="http://www.w3.org/2000/svg" style="display: none;">
  
  <symbol id="atw" viewBox="0 0 223.5 99">
    <title>athousandwords.nl</title> 
    <desc>logo of athousandwords.nl</desc>
    <g>
      <path d="M72.393,90.076v8.577h-9.067h-1.988h-6.111c-1.703,0-3.041-0.256-4.013-0.766c-0.974-0.511-1.704-1.544-2.189-3.1
        l-1.605-5.327c-1.897,1.701-3.759,3.198-5.583,4.486c-1.818,1.286-3.704,2.369-5.654,3.248c-1.948,0.876-4.016,1.532-6.202,1.969
        c-2.191,0.439-4.623,0.659-7.298,0.659c-3.159,0-6.079-0.428-8.757-1.28c-2.675-0.854-4.973-2.138-6.894-3.845
        c-1.922-1.71-3.419-3.833-4.489-6.371s-1.604-5.489-1.604-8.859c0-2.829,0.742-5.626,2.225-8.385
        c1.484-2.755,3.953-5.243,7.408-7.465c3.453-2.221,8.049-4.063,13.791-5.527c5.739-1.465,12.866-2.196,21.379-2.196v-4.412
        c0-5.049-1.059-8.787-3.174-11.214c-2.116-2.426-5.193-3.638-9.23-3.64c-2.918,0.001-5.35,0.341-7.298,1.022
        c-1.948,0.683-3.639,1.449-5.071,2.298c-1.422,0.846-2.748,1.612-3.977,2.299c-1.216,0.681-2.553,1.021-4.013,1.02
        c-1.216,0.002-2.262-0.314-3.138-0.947s-1.583-1.412-2.115-2.335l-3.285-5.765C13.049,26.341,23.436,22.4,35.599,22.4
        c4.375,0.001,8.279,0.719,11.711,2.152c3.429,1.436,6.336,3.431,8.72,5.984c2.386,2.558,4.198,5.61,5.437,9.159
        c1.241,3.549,1.861,7.441,1.86,11.673v33.17c1.663,0.294,2.945,0.522,3.845,0.688c0.901,0.163,1.424,0.259,1.572,0.282
        C71.177,86.032,72.395,87.556,72.393,90.076z M45.739,66.912c-5.258,0-9.648,0.329-13.17,0.991c-3.526,0.662-6.359,1.506-8.5,2.536
        c-2.142,1.03-3.663,2.229-4.562,3.602c-0.899,1.371-1.35,2.864-1.35,4.479c0,3.188,0.937,5.466,2.809,6.838
        c1.87,1.371,4.315,2.058,7.333,2.058c1.848,0,3.552-0.167,5.11-0.502c1.557-0.336,3.028-0.84,4.413-1.512
        c1.385-0.668,2.723-1.493,4.014-2.476c1.289-0.979,2.59-2.144,3.904-3.482L45.739,66.912z"/>
      <path d="M80.011,94.461c-3.502-3.676-5.253-8.746-5.253-15.216V37.433h-7.589c-0.974-0.001-1.812-0.317-2.518-0.95
        c-0.707-0.633-1.059-1.581-1.059-2.846v-7.151l12.041-1.97l3.794-20.432c0.195-0.974,0.645-1.728,1.35-2.262
        c0.705-0.536,1.594-0.803,2.663-0.802h9.34v23.569h19.704l13.04,13.991l-32.743-1.147v40.571c0,2.337,0.585,4.16,1.751,5.475
        c1.168,1.312,2.724,1.969,4.67,1.969c1.119,0,2.056-0.134,2.81-0.4c0.754-0.268,1.41-0.547,1.97-0.841
        c0.56-0.291,1.059-0.57,1.497-0.837c0.438-0.268,0.876-0.401,1.312-0.401c0.536,0,0.974,0.134,1.314,0.401
        c0.341,0.267,0.705,0.668,1.096,1.202l5.399,8.759c-2.626,2.188-5.643,3.842-9.048,4.961s-6.933,1.678-10.582,1.678
        C88.501,99.969,83.515,98.134,80.011,94.461z"/>
      <path d="M224.459,23.938v8.579c0,2.521-1.218,4.042-3.652,4.563c-1.122,0.197-0.691,0.138-6.904,1.235l-19.16,60.487h-14.521
        c-1.557,0-2.676-1.069-3.356-3.21l-13.499-43.272c-0.437-1.41-0.839-2.832-1.204-4.268c-0.365-1.434-0.668-2.857-0.913-4.27
        c-0.291,1.461-0.607,2.908-0.947,4.342c-0.343,1.436-0.73,2.883-1.17,4.342l-13.644,43.125c-0.683,2.141-1.997,3.21-3.94,3.21
        h-13.792l-19.16-60.488c-6.202-1.094-5.773-1.035-6.894-1.233c-2.435-0.521-3.652-2.043-3.652-4.563l-15.722-8.504l21.713-0.074
        v-0.001h14.301c0.011,0,0.02,0.001,0.03,0.001h16.142v8.579c0.002,2.521-1.215,4.042-3.651,4.563
        c-0.91,0.16-1.125,0.209-4.497,0.809l7.884,29.391c0.583,2.188,1.057,4.329,1.422,6.422c0.365,2.09,0.717,4.184,1.059,6.273
        c0.534-2.09,1.105-4.184,1.714-6.273c0.607-2.093,1.251-4.233,1.933-6.422l12.406-40.133c0.293-0.974,0.876-1.775,1.752-2.408
        c0.876-0.632,1.897-0.948,3.063-0.948h7.954c1.315,0,2.408,0.316,3.285,0.948c0.874,0.633,1.458,1.434,1.75,2.408l12.259,40.863
        c0.634,2.09,1.206,4.121,1.717,6.092c0.511,1.969,1.009,3.952,1.496,5.947c0.34-2.09,0.717-4.184,1.13-6.276
        c0.414-2.09,0.937-4.255,1.57-6.493l8.115-29.262c-4.071-0.721-4.257-0.768-5.229-0.938c-2.435-0.521-3.651-2.043-3.651-4.563
        v-8.579h16.792c0.009,0,0.017-0.001,0.026-0.001h13.646v0.001H224.459z"/>
    </g>
  </symbol>
</svg>
