<?xml version="1.0" encoding="utf-8"?>
<!-- Generator: Adobe Illustrator 13.0.0, SVG Export Plug-In . SVG Version: 6.00 Build 14948)  -->
<!DOCTYPE svg PUBLIC "-//W3C//DTD SVG 1.1//EN" "http://www.w3.org/Graphics/SVG/1.1/DTD/svg11.dtd">
<svg version="1.1" id="Layer_1" xmlns="http://www.w3.org/2000/svg" xmlns:xlink="http://www.w3.org/1999/xlink" x="0px" y="0px"
	 width="800px" height="600px" viewBox="0 0 800 600" enable-background="new 0 0 800 600" xml:space="preserve">
<polygon points="13.403,48.663 17.948,40.633 21.969,23.011 21.972,23.013 23.428,24.836 19.685,41.312 15.009,49.57 "/>
<path d="M14.707,32.229c-1.382-0.586-3.001-1.959-2.986-4.308l0,0c-0.029-2.145,1.064-3.567,2.273-4.21l0,0
	c1.201-0.661,3.043-0.728,3.043-0.728l0,0c0.189,0,0.322,0.007,0.378,0.012l0,0L23.173,23l0.254,1.836h-6.115l-0.039-0.001
	c0,0.001-0.068-0.009-0.236-0.009l0,0c-0.447-0.004-1.413,0.078-2.145,0.495l0,0c-0.721,0.438-1.299,1.021-1.327,2.6l0,0
	c0.016,1.109,0.473,1.703,1.154,2.208l0,0c0.681,0.488,1.602,0.755,2.212,0.869l0,0c0.407,0.076,0.646,0.088,0.648,0.088l0,0
	l-0.112,1.841C17.408,32.922,16.107,32.852,14.707,32.229L14.707,32.229z"/>
<path d="M20.004,32.707l1.313-1.295l18.107,20.252l18.871-3.035l-12.607-18.26H21.275v-1.843h25.382l14.82,21.464l-22.699,3.648
	L20.004,32.707L20.004,32.707z M21.275,30.369L21.275,30.369L21.275,30.369L21.275,30.369z"/>
<polygon points="38.221,52.381 47.866,20.76 49.631,21.301 39.984,52.92 "/>
<path d="M0.03,49.311c0-7.853,6.364-14.215,14.216-14.217l0,0c7.851,0.002,14.213,6.365,14.215,14.217l0,0
	c-0.001,7.85-6.364,14.213-14.215,14.215l0,0C6.394,63.522,0.03,57.16,0.03,49.311L0.03,49.311z M1.874,49.311
	c0.013,6.83,5.54,12.357,12.372,12.371l0,0c6.831-0.015,12.358-5.541,12.368-12.371l0,0c-0.011-6.834-5.539-12.359-12.368-12.371
	l0,0C7.414,36.951,1.886,42.477,1.874,49.311L1.874,49.311z"/>
<circle cx="14.246" cy="49.311" r="1.998"/>
<path d="M45.672,49.311c0-7.852,6.365-14.215,14.215-14.218l0,0c7.852,0.003,14.215,6.368,14.215,14.218l0,0
	c0,7.85-6.365,14.213-14.215,14.215l0,0C52.038,63.522,45.672,57.16,45.672,49.311L45.672,49.311z M47.516,49.311
	c0.012,6.832,5.541,12.359,12.371,12.369l0,0c6.83-0.012,12.361-5.538,12.371-12.369l0,0c-0.012-6.834-5.541-12.361-12.371-12.373
	l0,0C53.057,36.949,47.528,42.477,47.516,49.311L47.516,49.311z"/>
<circle cx="59.889" cy="49.311" r="1.998"/>
<circle cx="39.104" cy="52.038" r="1.999"/>
<polygon points="36.978,46.107 38.336,45.85 40.719,58.373 39.358,58.631 "/>
<polygon points="35.889,46.474 35.889,45.088 39.345,45.088 39.345,46.474 "/>
<polygon points="38.194,58.779 38.194,57.396 41.65,57.396 41.65,58.779 "/>
<path d="M43.858,19.767c0,0-1.201,0.24-1.201,0.958c0,0.718,0.717,0.88,1.08,0.839c0.168-0.019,4.314-0.121,6.232,0.359
	c1.918,0.479,2.877,0.84,3.477-0.118c0.6-0.96,0.719-2.997-1.797-2.879C49.129,19.048,43.858,19.767,43.858,19.767z"/>
<g>
	<path d="M10.852,3.327c-0.086,0.172-0.186,0.294-0.3,0.364c-0.113,0.071-0.249,0.106-0.405,0.106S9.813,3.737,9.618,3.615
		S9.191,3.359,8.924,3.21C8.658,3.061,8.347,2.926,7.99,2.804C7.634,2.683,7.213,2.622,6.727,2.622c-0.438,0-0.82,0.053-1.146,0.159
		C5.256,2.887,4.982,3.034,4.759,3.222s-0.39,0.413-0.5,0.675C4.15,4.16,4.095,4.448,4.095,4.761c0,0.399,0.112,0.732,0.335,0.999
		c0.223,0.266,0.519,0.493,0.887,0.681s0.787,0.356,1.257,0.505c0.47,0.149,0.95,0.308,1.439,0.476
		c0.49,0.168,0.97,0.364,1.439,0.587c0.47,0.223,0.889,0.505,1.257,0.846c0.368,0.341,0.664,0.758,0.887,1.251
		c0.223,0.494,0.335,1.093,0.335,1.798c0,0.768-0.131,1.486-0.394,2.156c-0.263,0.669-0.646,1.253-1.152,1.75
		c-0.505,0.498-1.122,0.889-1.851,1.175c-0.729,0.286-1.562,0.429-2.502,0.429c-0.541,0-1.073-0.053-1.598-0.159
		C3.911,17.151,3.408,17,2.926,16.805c-0.482-0.196-0.933-0.431-1.352-0.705s-0.793-0.58-1.122-0.917l0.917-1.516
		c0.086-0.11,0.19-0.202,0.312-0.276c0.122-0.074,0.256-0.112,0.405-0.112c0.196,0,0.407,0.081,0.635,0.241
		c0.227,0.161,0.495,0.339,0.805,0.535s0.674,0.374,1.093,0.535s0.922,0.241,1.51,0.241c0.901,0,1.598-0.213,2.092-0.641
		c0.493-0.427,0.74-1.04,0.74-1.839c0-0.446-0.112-0.811-0.335-1.093c-0.223-0.282-0.519-0.519-0.887-0.71S6.951,10.193,6.48,10.06
		c-0.47-0.133-0.948-0.278-1.434-0.435S4.083,9.281,3.614,9.062c-0.47-0.219-0.889-0.505-1.257-0.858
		C1.988,7.851,1.692,7.411,1.469,6.882S1.134,5.701,1.134,4.925c0-0.619,0.124-1.222,0.37-1.81s0.607-1.108,1.081-1.562
		C3.059,1.099,3.641,0.734,4.33,0.46C5.02,0.186,5.807,0.049,6.692,0.049c1.003,0,1.927,0.157,2.773,0.47
		c0.846,0.313,1.567,0.752,2.162,1.316L10.852,3.327z"/>
	<path d="M17.62,11.247v5.981h-3.161V0.237h5.534c1.136,0,2.119,0.133,2.949,0.4c0.83,0.266,1.516,0.638,2.056,1.116
		c0.541,0.478,0.94,1.05,1.199,1.715c0.258,0.666,0.388,1.395,0.388,2.186c0,0.822-0.137,1.577-0.411,2.262
		c-0.274,0.686-0.686,1.275-1.234,1.769s-1.234,0.877-2.056,1.151c-0.823,0.274-1.786,0.411-2.891,0.411H17.62z M17.62,8.779h2.374
		c0.58,0,1.085-0.072,1.516-0.217s0.788-0.353,1.069-0.623c0.282-0.27,0.494-0.599,0.635-0.987c0.141-0.388,0.211-0.82,0.211-1.298
		c0-0.454-0.071-0.866-0.211-1.234c-0.141-0.368-0.353-0.681-0.635-0.94c-0.282-0.258-0.639-0.456-1.069-0.593
		s-0.936-0.206-1.516-0.206H17.62V8.779z"/>
	<path d="M45.338,8.732c0,1.246-0.208,2.399-0.623,3.46c-0.416,1.062-0.999,1.979-1.751,2.755c-0.752,0.775-1.657,1.38-2.714,1.815
		c-1.057,0.435-2.229,0.652-3.513,0.652s-2.458-0.217-3.519-0.652c-1.062-0.435-1.97-1.04-2.726-1.815
		c-0.756-0.776-1.341-1.694-1.756-2.755c-0.416-1.062-0.623-2.215-0.623-3.46s0.208-2.399,0.623-3.46
		c0.415-1.062,1-1.98,1.756-2.755s1.665-1.381,2.726-1.815s2.234-0.652,3.519-0.652s2.456,0.22,3.513,0.658
		c1.058,0.439,1.962,1.044,2.714,1.815s1.335,1.688,1.751,2.75C45.13,6.333,45.338,7.487,45.338,8.732z M42.095,8.732
		c0-0.932-0.123-1.769-0.37-2.509c-0.247-0.74-0.601-1.369-1.063-1.886c-0.462-0.517-1.024-0.913-1.687-1.187
		c-0.662-0.274-1.408-0.411-2.238-0.411c-0.83,0-1.579,0.137-2.244,0.411c-0.666,0.274-1.232,0.67-1.698,1.187
		c-0.466,0.517-0.825,1.146-1.075,1.886c-0.251,0.74-0.376,1.577-0.376,2.509s0.125,1.768,0.376,2.508
		c0.25,0.74,0.609,1.367,1.075,1.88c0.466,0.513,1.032,0.907,1.698,1.181c0.666,0.274,1.414,0.411,2.244,0.411
		c0.831,0,1.577-0.137,2.238-0.411c0.662-0.274,1.224-0.667,1.687-1.181c0.462-0.513,0.816-1.14,1.063-1.88
		C41.972,10.5,42.095,9.665,42.095,8.732z"/>
	<path d="M51.095,10.589v6.639h-3.161V0.237h5.182c1.159,0,2.152,0.12,2.979,0.358c0.827,0.239,1.504,0.574,2.033,1.005
		c0.529,0.431,0.917,0.946,1.164,1.545c0.247,0.6,0.37,1.259,0.37,1.98c0,0.572-0.084,1.112-0.253,1.622s-0.411,0.971-0.729,1.386
		c-0.317,0.416-0.709,0.78-1.175,1.093c-0.466,0.313-0.997,0.564-1.592,0.752c0.4,0.227,0.744,0.552,1.034,0.975l4.253,6.274h-2.843
		c-0.274,0-0.507-0.055-0.699-0.165c-0.192-0.109-0.354-0.266-0.488-0.47l-3.572-5.44c-0.133-0.204-0.28-0.349-0.441-0.435
		c-0.161-0.086-0.397-0.129-0.711-0.129H51.095z M51.095,8.321h1.974c0.595,0,1.114-0.074,1.557-0.223
		c0.443-0.148,0.807-0.354,1.093-0.617c0.286-0.262,0.5-0.574,0.641-0.934s0.211-0.756,0.211-1.187c0-0.861-0.284-1.523-0.852-1.985
		c-0.568-0.462-1.436-0.693-2.603-0.693h-2.021V8.321z"/>
	<path d="M74.537,0.237v2.597h-5.111v14.394h-3.161V2.834H61.13V0.237H74.537z"/>
</g>
</svg>
