<?xml version="1.0" encoding="utf-8"?>
<!-- Generator: Adobe Illustrator 13.0.0, SVG Export Plug-In . SVG Version: 6.00 Build 14948)  -->
<!DOCTYPE svg PUBLIC "-//W3C//DTD SVG 1.1//EN" "http://www.w3.org/Graphics/SVG/1.1/DTD/svg11.dtd">
<svg version="1.1" id="Layer_1" xmlns="http://www.w3.org/2000/svg" xmlns:xlink="http://www.w3.org/1999/xlink" x="0px" y="0px"
	 width="800px" height="600px" viewBox="0 0 800 600" enable-background="new 0 0 800 600" xml:space="preserve">
<g id="Your_Icon">
	<g>
		<path d="M46.497,64.597c-0.563,0-1.123-0.215-1.549-0.64L26.075,45.082c-0.77-0.77-0.856-1.988-0.204-2.859l13.844-18.493
			c0.723-0.967,2.094-1.166,3.062-0.44c0.968,0.724,1.164,2.095,0.439,3.062L30.509,43.327l16.192,16.194L63.68,46.812
			c0.967-0.726,2.338-0.527,3.061,0.44c0.725,0.968,0.527,2.34-0.439,3.063L47.807,64.161
			C47.417,64.454,46.956,64.597,46.497,64.597z"/>
	</g>
	<g>
		<path d="M2.762,89.457c-0.56,0-1.12-0.214-1.547-0.641c-0.855-0.854-0.855-2.239,0-3.095c1.271-1.557,5.698-14.477,9.223-26.045
			c0.155-0.508,0.488-0.939,0.937-1.22L30.057,46.82c1.023-0.639,2.374-0.327,3.013,0.699c0.639,1.025,0.326,2.375-0.699,3.014
			L14.384,61.738c-2.44,7.97-7.782,24.784-10.076,27.079C3.881,89.243,3.321,89.457,2.762,89.457z"/>
	</g>
	<g>
		<path d="M2.75,89.484c-0.562,0-1.123-0.218-1.557-0.649c-0.853-0.854-0.834-2.258,0.02-3.112L22.87,64.063
			c0.855-0.854,2.239-0.854,3.095,0c0.854,0.855,0.854,2.24,0,3.095L12.254,80.87c5.576-1.969,11.961-3.976,16.037-5.223
			l11.206-17.986c0.639-1.024,1.988-1.338,3.015-0.699c1.024,0.639,1.337,1.989,0.699,3.014L31.572,78.656
			c-0.281,0.448-0.712,0.783-1.219,0.937c-11.569,3.525-24.487,7.951-26.082,9.26C3.847,89.275,3.3,89.484,2.75,89.484z"/>
	</g>
	<g>
		<path d="M22.67,62.459c1.351-1.352,3.544-1.353,4.9,0.002c1.352,1.353,1.352,3.548,0,4.899s-3.546,1.352-4.9,0
			C21.318,66.005,21.318,63.813,22.67,62.459z"/>
	</g>
</g>
<g>
	<path d="M0.227,20.361V1.202h6.612c1.254,0,2.325,0.12,3.213,0.358s1.617,0.579,2.187,1.02c0.569,0.442,0.987,0.977,1.252,1.604
		c0.265,0.627,0.397,1.334,0.397,2.12c0,0.45-0.066,0.881-0.199,1.292c-0.132,0.411-0.338,0.795-0.616,1.153
		c-0.278,0.358-0.631,0.683-1.06,0.974c-0.428,0.292-0.938,0.539-1.53,0.742c2.632,0.592,3.949,2.014,3.949,4.267
		c0,0.813-0.155,1.563-0.464,2.252c-0.31,0.689-0.76,1.283-1.352,1.782s-1.321,0.89-2.186,1.173
		c-0.866,0.283-1.855,0.424-2.968,0.424H0.227z M3.791,9.496H6.64c1.21,0,2.128-0.221,2.756-0.662
		c0.627-0.442,0.941-1.144,0.941-2.107c0-0.998-0.283-1.709-0.848-2.133C8.923,4.17,8.04,3.958,6.838,3.958H3.791V9.496z
		 M3.791,11.961v5.618h3.618c0.662,0,1.216-0.079,1.663-0.238c0.446-0.159,0.804-0.371,1.073-0.636
		c0.27-0.265,0.464-0.574,0.583-0.927c0.119-0.353,0.179-0.729,0.179-1.126c0-0.415-0.066-0.788-0.199-1.12
		c-0.132-0.331-0.34-0.614-0.623-0.848s-0.645-0.413-1.086-0.537c-0.442-0.124-0.976-0.186-1.604-0.186H3.791z"/>
	<path d="M21.055,17.42h7.672v2.941H17.491V1.202h3.564V17.42z"/>
	<path d="M48.509,10.782c0,1.404-0.234,2.705-0.702,3.902c-0.468,1.197-1.126,2.233-1.974,3.107s-1.868,1.557-3.061,2.047
		c-1.193,0.49-2.513,0.735-3.962,0.735s-2.771-0.245-3.968-0.735c-1.197-0.49-2.222-1.172-3.074-2.047s-1.513-1.91-1.981-3.107
		c-0.468-1.197-0.702-2.498-0.702-3.902c0-1.405,0.234-2.705,0.702-3.902c0.468-1.197,1.128-2.232,1.981-3.107
		s1.877-1.557,3.074-2.047c1.197-0.49,2.52-0.735,3.968-0.735s2.769,0.248,3.962,0.742c1.192,0.495,2.212,1.177,3.061,2.047
		c0.848,0.87,1.506,1.904,1.974,3.101C48.275,8.077,48.509,9.377,48.509,10.782z M44.853,10.782c0-1.051-0.139-1.994-0.417-2.829
		c-0.278-0.834-0.678-1.543-1.199-2.126c-0.521-0.583-1.155-1.029-1.901-1.338c-0.747-0.309-1.588-0.464-2.524-0.464
		c-0.937,0-1.78,0.155-2.531,0.464c-0.751,0.31-1.389,0.755-1.915,1.338c-0.526,0.583-0.93,1.292-1.212,2.126
		c-0.283,0.835-0.424,1.778-0.424,2.829s0.141,1.994,0.424,2.829c0.283,0.835,0.687,1.542,1.212,2.12
		c0.525,0.579,1.164,1.022,1.915,1.332c0.75,0.31,1.594,0.464,2.531,0.464c0.936,0,1.777-0.154,2.524-0.464
		c0.747-0.309,1.38-0.753,1.901-1.332c0.521-0.579,0.921-1.285,1.199-2.12C44.713,12.776,44.853,11.833,44.853,10.782z"/>
	<path d="M60.116,17.738c0.804,0,1.504-0.073,2.1-0.219c0.596-0.146,1.164-0.346,1.703-0.603v-3.485h-2.398
		c-0.23,0-0.411-0.064-0.543-0.192c-0.132-0.128-0.199-0.285-0.199-0.47v-2.014h6.373v7.751c-0.486,0.354-0.992,0.661-1.517,0.921
		c-0.525,0.261-1.086,0.475-1.683,0.643c-0.596,0.168-1.234,0.293-1.915,0.377s-1.414,0.126-2.2,0.126
		c-1.396,0-2.681-0.243-3.855-0.729s-2.191-1.162-3.048-2.027c-0.856-0.866-1.526-1.899-2.007-3.101
		c-0.481-1.201-0.722-2.513-0.722-3.935c0-1.44,0.234-2.761,0.703-3.962c0.468-1.201,1.133-2.235,1.994-3.101
		c0.861-0.866,1.906-1.537,3.133-2.014c1.228-0.477,2.606-0.716,4.134-0.716c1.563,0,2.917,0.232,4.061,0.696
		c1.144,0.464,2.113,1.066,2.908,1.809L66.105,5.11c-0.204,0.327-0.473,0.49-0.809,0.49c-0.212,0-0.428-0.07-0.649-0.212
		c-0.283-0.167-0.572-0.335-0.868-0.503c-0.296-0.167-0.623-0.313-0.98-0.437c-0.357-0.124-0.76-0.226-1.206-0.305
		c-0.446-0.08-0.961-0.12-1.544-0.12c-0.945,0-1.8,0.159-2.563,0.477c-0.764,0.318-1.416,0.773-1.955,1.365
		c-0.539,0.592-0.954,1.303-1.246,2.133c-0.292,0.831-0.437,1.758-0.437,2.783c0,1.104,0.154,2.087,0.464,2.948
		c0.309,0.861,0.742,1.588,1.298,2.18c0.557,0.592,1.219,1.045,1.987,1.358S59.207,17.738,60.116,17.738z"/>
</g>
</svg>
