<?xml version="1.0" encoding="utf-8"?>
<!-- Generator: Adobe Illustrator 13.0.0, SVG Export Plug-In . SVG Version: 6.00 Build 14948)  -->
<!DOCTYPE svg PUBLIC "-//W3C//DTD SVG 1.1//EN" "http://www.w3.org/Graphics/SVG/1.1/DTD/svg11.dtd">
<svg version="1.1" id="Layer_1" xmlns="http://www.w3.org/2000/svg" xmlns:xlink="http://www.w3.org/1999/xlink" x="0px" y="0px"
	 width="800px" height="600px" viewBox="0 0 800 600" enable-background="new 0 0 800 600" xml:space="preserve">
<path d="M55.307,30.879L34.496,88.656h6.273L61.58,30.879H55.307z M28.408,39.212l-1.621,1.042L1.602,56.55l-1.343,0.856v3.147
	l1.25,0.903l25.185,17.778l1.713,1.181v-7.245L8.523,59.12l19.884-12.871V39.212z M66.926,39.212v7.037L86.811,59.12L66.926,73.171
	v7.245l1.714-1.181l25.185-17.778l1.251-0.903v-3.147l-1.343-0.856L68.547,40.253L66.926,39.212z"/>
<g>
	<path d="M18.982,19.729c0.256,0,0.478,0.099,0.665,0.297l1.855,2.012c-1.027,1.272-2.29,2.246-3.789,2.923
		s-3.299,1.015-5.398,1.015c-1.879,0-3.567-0.32-5.066-0.962c-1.5-0.642-2.78-1.534-3.841-2.677s-1.875-2.508-2.441-4.095
		c-0.566-1.586-0.849-3.319-0.849-5.197c0-1.902,0.315-3.643,0.945-5.224c0.63-1.581,1.517-2.942,2.66-4.086
		C4.865,2.59,6.233,1.701,7.826,1.064c1.592-0.636,3.351-0.954,5.276-0.954c1.878,0,3.521,0.3,4.926,0.901s2.61,1.397,3.614,2.389
		l-1.575,2.188c-0.094,0.14-0.213,0.262-0.359,0.367c-0.146,0.105-0.347,0.158-0.604,0.158c-0.268,0-0.542-0.105-0.822-0.315
		s-0.636-0.438-1.067-0.683c-0.432-0.245-0.978-0.473-1.636-0.683c-0.659-0.21-1.497-0.315-2.511-0.315
		c-1.19,0-2.284,0.208-3.281,0.622S7.931,5.746,7.213,6.516c-0.717,0.77-1.277,1.707-1.68,2.809
		c-0.403,1.103-0.604,2.342-0.604,3.719c0,1.423,0.201,2.689,0.604,3.797c0.402,1.108,0.948,2.042,1.636,2.8
		c0.688,0.759,1.499,1.339,2.432,1.741c0.934,0.403,1.937,0.604,3.01,0.604c0.642,0,1.222-0.035,1.741-0.105
		c0.519-0.07,0.998-0.181,1.435-0.333c0.438-0.151,0.852-0.347,1.242-0.586c0.391-0.239,0.779-0.534,1.164-0.884
		c0.116-0.105,0.239-0.189,0.367-0.253S18.83,19.729,18.982,19.729z"/>
	<path d="M49.326,13.043c0,1.855-0.31,3.573-0.928,5.154c-0.619,1.581-1.487,2.949-2.607,4.104s-2.467,2.056-4.042,2.704
		s-3.319,0.971-5.232,0.971c-1.914,0-3.661-0.324-5.241-0.971c-1.581-0.647-2.935-1.549-4.06-2.704
		c-1.126-1.155-1.998-2.523-2.616-4.104c-0.619-1.581-0.928-3.299-0.928-5.154s0.309-3.573,0.928-5.154
		c0.618-1.581,1.49-2.949,2.616-4.104c1.125-1.155,2.479-2.056,4.06-2.704c1.581-0.647,3.328-0.971,5.241-0.971
		c1.913,0,3.657,0.327,5.232,0.98s2.922,1.555,4.042,2.704c1.12,1.149,1.989,2.514,2.607,4.095
		C49.017,9.471,49.326,11.188,49.326,13.043z M44.496,13.043c0-1.388-0.184-2.634-0.551-3.736s-0.896-2.039-1.584-2.809
		c-0.688-0.77-1.525-1.359-2.511-1.768s-2.097-0.613-3.333-0.613c-1.237,0-2.351,0.205-3.343,0.613s-1.834,0.998-2.528,1.768
		c-0.694,0.77-1.228,1.706-1.602,2.809s-0.56,2.348-0.56,3.736s0.187,2.634,0.56,3.736c0.374,1.102,0.907,2.036,1.602,2.8
		c0.694,0.764,1.537,1.351,2.528,1.759s2.106,0.612,3.343,0.612c1.236,0,2.348-0.204,3.333-0.612s1.823-0.995,2.511-1.759
		s1.216-1.698,1.584-2.8C44.312,15.677,44.496,14.432,44.496,13.043z"/>
	<path d="M75.506,13.043c0,1.855-0.309,3.559-0.927,5.11c-0.619,1.552-1.488,2.888-2.607,4.007c-1.12,1.12-2.468,1.989-4.043,2.607
		c-1.575,0.619-3.319,0.928-5.232,0.928h-9.66V0.391h9.66c1.914,0,3.658,0.312,5.232,0.937c1.575,0.624,2.923,1.494,4.043,2.607
		c1.12,1.114,1.989,2.447,2.607,3.999C75.197,9.485,75.506,11.188,75.506,13.043z M70.694,13.043c0-1.388-0.187-2.634-0.56-3.736
		s-0.904-2.036-1.592-2.8c-0.688-0.764-1.525-1.35-2.511-1.758c-0.986-0.409-2.097-0.613-3.334-0.613h-4.917v17.815h4.917
		c1.237,0,2.348-0.204,3.334-0.612c0.986-0.408,1.823-0.995,2.511-1.759c0.688-0.764,1.219-1.698,1.592-2.8
		C70.507,15.677,70.694,14.432,70.694,13.043z"/>
	<path d="M95.159,0.391v3.745H83.941v7.018h8.837v3.623h-8.837v7.157h11.218v3.763h-15.96V0.391H95.159z"/>
</g>
</svg>
