<?xml version="1.0" encoding="utf-8"?>
<!-- Generator: Adobe Illustrator 13.0.0, SVG Export Plug-In . SVG Version: 6.00 Build 14948)  -->
<!DOCTYPE svg PUBLIC "-//W3C//DTD SVG 1.1//EN" "http://www.w3.org/Graphics/SVG/1.1/DTD/svg11.dtd">
<svg version="1.1" id="Layer_1" xmlns="http://www.w3.org/2000/svg" xmlns:xlink="http://www.w3.org/1999/xlink" x="0px" y="0px"
	 width="400px" height="100px" viewBox="0 0 400 100" enable-background="new 0 0 400 100" xml:space="preserve">
<polygon points="21.834,75.314 28.933,62.447 35.212,34.208 35.217,34.212 37.491,37.132 31.645,63.535 24.342,76.769 "/>
<path d="M23.871,48.98c-2.158-0.939-4.687-3.139-4.663-6.904l0,0c-0.046-3.438,1.661-5.716,3.549-6.747l0,0
	c1.875-1.06,4.752-1.167,4.752-1.167l0,0c0.295,0,0.502,0.012,0.591,0.021l0,0l8.992,0.008l0.396,2.941h-9.549l-0.061-0.001
	c0,0.001-0.106-0.014-0.369-0.014l0,0c-0.698-0.006-2.207,0.125-3.35,0.793l0,0c-1.127,0.702-2.029,1.636-2.073,4.167l0,0
	c0.025,1.778,0.739,2.729,1.803,3.538l0,0c1.063,0.782,2.501,1.21,3.455,1.393l0,0c0.635,0.122,1.009,0.141,1.012,0.141l0,0
	l-0.176,2.951C28.089,50.091,26.057,49.978,23.871,48.98L23.871,48.98z"/>
<path d="M32.143,49.746l2.05-2.075l28.278,32.452l29.472-4.863L72.254,46H34.128v-2.954h39.64L96.913,77.44l-35.45,5.847
	L32.143,49.746L32.143,49.746z M34.128,46L34.128,46L34.128,46L34.128,46z"/>
<polygon points="60.593,81.271 75.656,30.601 78.412,31.468 63.346,82.136 "/>
<path d="M0.949,76.354c0-12.584,9.939-22.779,22.202-22.783l0,0c12.261,0.004,22.197,10.201,22.2,22.783l0,0
	c-0.001,12.581-9.939,22.774-22.2,22.777l0,0C10.888,99.124,0.949,88.932,0.949,76.354L0.949,76.354z M3.829,76.354
	c0.021,10.943,8.652,19.801,19.322,19.823l0,0c10.668-0.022,19.299-8.88,19.315-19.823l0,0
	c-0.017-10.952-8.649-19.805-19.315-19.824l0,0C12.481,56.547,3.848,65.401,3.829,76.354L3.829,76.354z"/>
<ellipse cx="23.151" cy="76.353" rx="3.121" ry="3.201"/>
<path d="M72.229,76.353c0-12.581,9.941-22.778,22.201-22.783l0,0c12.262,0.005,22.2,10.204,22.2,22.783l0,0
	c0,12.582-9.94,22.775-22.2,22.778l0,0C82.172,99.124,72.229,88.932,72.229,76.353L72.229,76.353z M75.109,76.353
	c0.019,10.947,8.654,19.805,19.32,19.82l0,0c10.667-0.019,19.304-8.873,19.32-19.82l0,0c-0.019-10.951-8.653-19.808-19.32-19.827
	l0,0C83.763,56.545,75.128,65.401,75.109,76.353L75.109,76.353z"/>
<ellipse cx="94.433" cy="76.353" rx="3.121" ry="3.201"/>
<ellipse cx="61.972" cy="80.723" rx="3.122" ry="3.203"/>
<polygon points="58.651,71.22 60.772,70.807 64.494,90.875 62.368,91.287 "/>
<polygon points="56.951,71.809 56.951,69.586 62.349,69.586 62.349,71.809 "/>
<polygon points="60.551,91.525 60.551,89.31 65.948,89.31 65.948,91.525 "/>
<path d="M69.396,29.01c0,0-1.875,0.384-1.875,1.535c0,1.15,1.12,1.411,1.686,1.345c0.263-0.031,6.737-0.195,9.733,0.575
	c2.996,0.768,4.493,1.347,5.43-0.188c0.938-1.539,1.124-4.803-2.806-4.614C77.628,27.857,69.396,29.01,69.396,29.01z"/>
<g id="Your_Icon">
	<g>
		<path d="M190.439,73.275c-0.594,0-1.185-0.227-1.634-0.676l-19.912-19.914c-0.812-0.812-0.904-2.098-0.215-3.017l14.606-19.51
			c0.763-1.021,2.209-1.23,3.231-0.464c1.021,0.764,1.228,2.21,0.464,3.23l-13.407,17.91l17.083,17.085l17.913-13.408
			c1.021-0.766,2.467-0.557,3.229,0.464c0.765,1.021,0.557,2.47-0.464,3.232l-19.512,14.607
			C191.41,73.125,190.924,73.275,190.439,73.275z"/>
	</g>
	<g>
		<path d="M144.299,99.502c-0.591,0-1.182-0.225-1.633-0.676c-0.902-0.9-0.902-2.361,0-3.264c1.342-1.643,6.012-15.273,9.73-27.479
			c0.163-0.535,0.515-0.99,0.988-1.287l19.711-12.277c1.08-0.674,2.504-0.344,3.179,0.737c0.674,1.082,0.344,2.506-0.737,3.18
			L156.56,70.259c-2.575,8.409-8.21,26.148-10.63,28.569C145.479,99.277,144.889,99.502,144.299,99.502z"/>
	</g>
	<g>
		<path d="M144.286,99.531c-0.592,0-1.185-0.229-1.642-0.685c-0.9-0.902-0.88-2.382,0.021-3.284l22.848-22.85
			c0.902-0.9,2.362-0.9,3.265,0c0.9,0.902,0.9,2.363,0,3.264l-14.466,14.468c5.883-2.077,12.62-4.195,16.92-5.511l11.822-18.976
			c0.673-1.082,2.098-1.411,3.18-0.737c1.081,0.673,1.411,2.098,0.738,3.179l-12.279,19.708c-0.296,0.474-0.751,0.826-1.286,0.989
			c-12.206,3.719-25.834,8.389-27.517,9.769C145.443,99.311,144.866,99.531,144.286,99.531z"/>
	</g>
	<g>
		<path d="M165.302,71.019c1.426-1.426,3.74-1.426,5.17,0.002c1.426,1.429,1.426,3.744,0,5.17c-1.426,1.427-3.741,1.427-5.17,0
			C163.875,74.761,163.875,72.449,165.302,71.019z"/>
	</g>
</g>
<g>
	<path d="M118.778,27.473V0.722h9.231c1.751,0,3.247,0.167,4.486,0.5c1.239,0.333,2.257,0.808,3.052,1.424
		c0.795,0.617,1.378,1.363,1.749,2.239c0.37,0.876,0.555,1.862,0.555,2.96c0,0.629-0.092,1.23-0.277,1.804
		c-0.185,0.573-0.472,1.11-0.86,1.609s-0.882,0.953-1.48,1.36c-0.598,0.407-1.311,0.752-2.137,1.036
		c3.675,0.826,5.513,2.812,5.513,5.957c0,1.135-0.216,2.183-0.647,3.145c-0.432,0.962-1.061,1.792-1.887,2.488
		c-0.827,0.697-1.844,1.243-3.053,1.638c-1.208,0.395-2.59,0.592-4.144,0.592H118.778z M123.754,12.303h3.977
		c1.69,0,2.972-0.308,3.848-0.925c0.875-0.616,1.313-1.597,1.313-2.941c0-1.394-0.395-2.386-1.184-2.979
		c-0.789-0.592-2.022-0.888-3.7-0.888h-4.255V12.303z M123.754,15.744v7.844h5.05c0.925,0,1.699-0.111,2.322-0.333
		c0.623-0.222,1.122-0.518,1.499-0.888c0.376-0.37,0.647-0.802,0.814-1.295s0.25-1.018,0.25-1.573c0-0.58-0.092-1.101-0.277-1.563
		s-0.475-0.857-0.87-1.184s-0.9-0.577-1.517-0.75c-0.617-0.172-1.363-0.259-2.239-0.259H123.754z"/>
	<path d="M147.859,23.366h10.711v4.107h-15.688V0.722h4.977V23.366z"/>
	<path d="M186.191,14.098c0,1.961-0.327,3.777-0.98,5.448c-0.654,1.671-1.572,3.117-2.756,4.338
		c-1.184,1.221-2.608,2.174-4.273,2.858c-1.665,0.685-3.509,1.027-5.532,1.027s-3.87-0.342-5.541-1.027
		c-1.671-0.684-3.102-1.637-4.292-2.858c-1.19-1.221-2.112-2.667-2.766-4.338c-0.654-1.671-0.981-3.487-0.981-5.448
		s0.327-3.777,0.981-5.448c0.653-1.671,1.575-3.117,2.766-4.338c1.19-1.221,2.621-2.174,4.292-2.858
		c1.671-0.685,3.518-1.027,5.541-1.027s3.867,0.345,5.532,1.036c1.665,0.691,3.089,1.644,4.273,2.858
		c1.184,1.215,2.103,2.658,2.756,4.329C185.865,10.321,186.191,12.137,186.191,14.098z M181.085,14.098
		c0-1.468-0.194-2.784-0.583-3.95c-0.389-1.166-0.947-2.155-1.674-2.969c-0.728-0.814-1.613-1.437-2.655-1.869
		c-1.042-0.432-2.217-0.647-3.524-0.647s-2.485,0.216-3.533,0.647c-1.049,0.432-1.94,1.055-2.673,1.869
		c-0.734,0.814-1.298,1.804-1.693,2.969c-0.395,1.166-0.592,2.482-0.592,3.95s0.197,2.784,0.592,3.95
		c0.395,1.166,0.959,2.152,1.693,2.96c0.733,0.808,1.625,1.428,2.673,1.859c1.048,0.432,2.226,0.647,3.533,0.647
		s2.482-0.216,3.524-0.647c1.042-0.432,1.927-1.051,2.655-1.859c0.728-0.808,1.286-1.794,1.674-2.96
		C180.891,16.882,181.085,15.565,181.085,14.098z"/>
	<path d="M202.397,23.81c1.122,0,2.101-0.102,2.933-0.305s1.625-0.484,2.377-0.842v-4.865h-3.349c-0.321,0-0.573-0.089-0.759-0.269
		c-0.185-0.179-0.277-0.397-0.277-0.657v-2.812h8.898v10.823c-0.678,0.493-1.385,0.922-2.117,1.286
		c-0.734,0.364-1.518,0.663-2.35,0.897c-0.833,0.235-1.725,0.41-2.674,0.527s-1.974,0.176-3.07,0.176
		c-1.95,0-3.744-0.339-5.384-1.018c-1.64-0.678-3.059-1.622-4.255-2.83c-1.196-1.209-2.131-2.652-2.803-4.329
		c-0.672-1.677-1.008-3.509-1.008-5.495c0-2.01,0.327-3.854,0.98-5.532c0.654-1.677,1.582-3.12,2.784-4.329
		c1.203-1.208,2.661-2.146,4.375-2.812c1.714-0.666,3.638-0.999,5.772-0.999c2.183,0,4.073,0.324,5.671,0.971
		c1.596,0.647,2.95,1.489,4.061,2.525L210.76,6.18c-0.284,0.457-0.66,0.685-1.129,0.685c-0.296,0-0.598-0.099-0.906-0.296
		c-0.395-0.234-0.799-0.469-1.212-0.703s-0.869-0.438-1.368-0.61c-0.5-0.173-1.062-0.315-1.684-0.426
		c-0.623-0.111-1.342-0.167-2.156-0.167c-1.319,0-2.513,0.222-3.579,0.666c-1.067,0.444-1.977,1.08-2.729,1.906
		c-0.752,0.826-1.332,1.819-1.739,2.978c-0.407,1.16-0.611,2.455-0.611,3.885c0,1.542,0.216,2.914,0.647,4.116
		s1.036,2.217,1.813,3.043c0.777,0.826,1.702,1.458,2.775,1.896C199.956,23.591,201.127,23.81,202.397,23.81z"/>
</g>
<path d="M274.351,29.078l-21.892,60.777h6.6l21.891-60.777H274.351z M246.056,37.844l-1.706,1.096l-26.492,17.143l-1.412,0.9v3.312
	l1.314,0.95l26.494,18.701l1.802,1.242v-7.621l-20.918-14.781l20.918-13.539V37.844z M286.573,37.844v7.402l20.917,13.539
	l-20.917,14.781v7.621l1.804-1.242l26.491-18.701l1.316-0.95v-3.312l-1.413-0.9l-26.493-17.143L286.573,37.844z"/>
<g>
	<path d="M235.746,21.137c0.271,0,0.506,0.105,0.703,0.314l1.961,2.127c-1.085,1.345-2.42,2.375-4.005,3.09
		s-3.487,1.073-5.707,1.073c-1.985,0-3.771-0.339-5.356-1.018c-1.584-0.678-2.938-1.622-4.061-2.83
		c-1.122-1.209-1.982-2.652-2.58-4.329c-0.599-1.677-0.897-3.509-0.897-5.495c0-2.01,0.333-3.851,0.999-5.522
		c0.666-1.671,1.604-3.111,2.812-4.319c1.208-1.209,2.654-2.149,4.338-2.821s3.543-1.008,5.578-1.008
		c1.984,0,3.721,0.317,5.207,0.953s2.76,1.477,3.82,2.525l-1.665,2.312c-0.099,0.148-0.226,0.277-0.379,0.388
		c-0.154,0.111-0.367,0.167-0.638,0.167c-0.285,0-0.574-0.111-0.87-0.333c-0.296-0.222-0.673-0.462-1.128-0.721
		c-0.457-0.259-1.033-0.5-1.73-0.722s-1.582-0.333-2.654-0.333c-1.258,0-2.414,0.219-3.469,0.657
		c-1.055,0.438-1.961,1.064-2.72,1.878s-1.351,1.804-1.776,2.969s-0.639,2.476-0.639,3.931c0,1.505,0.213,2.843,0.639,4.015
		s1.002,2.158,1.73,2.96c0.727,0.802,1.584,1.415,2.57,1.841c0.987,0.425,2.048,0.638,3.183,0.638c0.679,0,1.292-0.037,1.841-0.111
		c0.549-0.074,1.055-0.191,1.518-0.351c0.462-0.16,0.899-0.367,1.312-0.62c0.414-0.252,0.824-0.564,1.23-0.934
		c0.123-0.111,0.253-0.2,0.389-0.268S235.586,21.137,235.746,21.137z"/>
	<path d="M267.825,14.07c0,1.961-0.327,3.777-0.98,5.448c-0.653,1.671-1.572,3.117-2.757,4.338
		c-1.184,1.221-2.607,2.174-4.273,2.858c-1.664,0.685-3.508,1.027-5.531,1.027s-3.869-0.342-5.541-1.027
		c-1.671-0.684-3.102-1.637-4.291-2.858c-1.191-1.221-2.113-2.667-2.766-4.338c-0.654-1.671-0.981-3.487-0.981-5.448
		s0.327-3.777,0.981-5.448c0.652-1.671,1.574-3.117,2.766-4.338c1.189-1.221,2.62-2.174,4.291-2.858
		c1.672-0.685,3.518-1.027,5.541-1.027s3.867,0.345,5.531,1.036c1.666,0.691,3.09,1.644,4.273,2.858
		c1.185,1.215,2.104,2.658,2.757,4.329C267.498,10.293,267.825,12.109,267.825,14.07z M262.719,14.07
		c0-1.468-0.193-2.784-0.582-3.95s-0.947-2.155-1.674-2.969c-0.729-0.814-1.613-1.437-2.655-1.869
		c-1.042-0.432-2.218-0.647-3.524-0.647s-2.485,0.216-3.533,0.647c-1.049,0.432-1.939,1.055-2.674,1.869
		c-0.733,0.814-1.298,1.804-1.692,2.969c-0.396,1.166-0.592,2.482-0.592,3.95s0.196,2.784,0.592,3.95
		c0.395,1.166,0.959,2.152,1.692,2.96c0.734,0.808,1.625,1.428,2.674,1.859c1.048,0.432,2.227,0.647,3.533,0.647
		s2.482-0.216,3.524-0.647s1.927-1.051,2.655-1.859c0.727-0.808,1.285-1.794,1.674-2.96S262.719,15.538,262.719,14.07z"/>
	<path d="M295.502,14.07c0,1.961-0.328,3.762-0.98,5.402c-0.654,1.641-1.573,3.053-2.758,4.237
		c-1.184,1.184-2.607,2.103-4.273,2.756c-1.664,0.654-3.508,0.98-5.531,0.98h-10.211V0.695h10.211c2.023,0,3.867,0.33,5.531,0.99
		c1.666,0.66,3.09,1.579,4.273,2.756c1.185,1.178,2.104,2.587,2.758,4.228C295.174,10.309,295.502,12.109,295.502,14.07z
		 M290.414,14.07c0-1.468-0.197-2.784-0.592-3.95s-0.957-2.152-1.684-2.96c-0.729-0.808-1.613-1.427-2.655-1.859
		c-1.042-0.432-2.217-0.647-3.524-0.647h-5.198v18.833h5.198c1.308,0,2.482-0.216,3.524-0.647s1.927-1.051,2.655-1.859
		c0.727-0.808,1.289-1.794,1.684-2.96S290.414,15.538,290.414,14.07z"/>
	<path d="M316.277,0.695v3.959h-11.859v7.418h9.343v3.83h-9.343v7.566h11.859v3.978h-16.873V0.695H316.277z"/>
</g>
<g id="Your_Icon_1_">
	<path d="M373.412,48.59c-7.262,0-13.17,5.907-13.17,13.168s5.908,13.169,13.17,13.169c7.26,0,13.168-5.908,13.168-13.169
		S380.672,48.59,373.412,48.59z M373.412,67.521c-3.184,0-5.762-2.579-5.762-5.762s2.578-5.761,5.762-5.761
		c3.182,0,5.76,2.578,5.76,5.761S376.594,67.521,373.412,67.521z M391.518,39.147h-4.982l-1.766-3.19
		c-1.16-2.095-3.365-3.395-5.762-3.395h-11.182c-2.393,0-4.598,1.299-5.758,3.393l-1.77,3.193h-16.312v-3.822h-11.521v3.822h-1.852
		c-3.637,0-6.585,2.948-6.585,6.584v32.922c0,3.636,2.948,6.585,6.585,6.585h60.906c3.635,0,6.584-2.948,6.584-6.585V45.731
		C398.104,42.095,395.154,39.147,391.518,39.147z M340.695,75.074c0,1.363-1.105,2.469-2.469,2.469
		c-1.365,0-2.471-1.105-2.471-2.469V50.236c0-1.364,1.105-2.469,2.471-2.469c1.363,0,2.469,1.105,2.469,2.469V75.074z
		 M373.412,79.865c-10.002,0-18.107-8.105-18.107-18.106c0-10,8.105-18.106,18.107-18.106c10,0,18.105,8.106,18.105,18.106
		S383.412,79.865,373.412,79.865z"/>
</g>
<g>
	<path d="M347.296,0.325c1.233,0,2.347,0.176,3.339,0.527c0.993,0.351,1.842,0.839,2.544,1.461c0.703,0.623,1.243,1.354,1.619,2.192
		c0.376,0.839,0.563,1.746,0.563,2.72c0,0.851-0.096,1.6-0.286,2.248c-0.191,0.647-0.469,1.212-0.833,1.693
		c-0.363,0.481-0.808,0.888-1.332,1.221c-0.523,0.333-1.119,0.61-1.785,0.833c1.604,0.506,2.8,1.276,3.59,2.312
		c0.789,1.036,1.184,2.337,1.184,3.903c0,1.332-0.247,2.51-0.74,3.534s-1.159,1.884-1.998,2.581
		c-0.838,0.697-1.811,1.224-2.914,1.582c-1.104,0.358-2.271,0.537-3.506,0.537c-1.344,0-2.516-0.154-3.514-0.462
		c-1-0.308-1.869-0.765-2.609-1.369c-0.74-0.604-1.369-1.344-1.887-2.22s-0.962-1.887-1.332-3.034l2.017-0.833
		c0.345-0.148,0.696-0.222,1.054-0.222c0.321,0,0.607,0.068,0.861,0.204c0.252,0.136,0.446,0.333,0.582,0.592
		c0.223,0.432,0.466,0.857,0.73,1.276c0.266,0.419,0.584,0.792,0.953,1.119c0.37,0.327,0.805,0.592,1.305,0.795
		c0.499,0.204,1.094,0.306,1.785,0.306c0.777,0,1.455-0.126,2.035-0.379c0.579-0.253,1.063-0.583,1.452-0.99
		c0.388-0.407,0.678-0.86,0.869-1.36s0.287-1.002,0.287-1.508c0-0.641-0.068-1.224-0.204-1.748
		c-0.135-0.524-0.419-0.971-0.851-1.341s-1.052-0.66-1.859-0.87c-0.808-0.209-1.89-0.314-3.247-0.314v-3.274
		c1.123,0,2.054-0.099,2.794-0.296c0.739-0.197,1.329-0.472,1.767-0.823c0.438-0.352,0.743-0.774,0.916-1.268
		c0.172-0.493,0.259-1.036,0.259-1.628c0-1.27-0.345-2.229-1.036-2.876c-0.69-0.648-1.635-0.972-2.83-0.972
		c-1.086,0-1.986,0.287-2.701,0.859c-0.715,0.573-1.215,1.309-1.498,2.208c-0.148,0.468-0.352,0.804-0.611,1.007
		c-0.259,0.203-0.598,0.305-1.018,0.305c-0.197,0-0.406-0.018-0.629-0.055l-2.404-0.418c0.185-1.283,0.542-2.409,1.072-3.377
		s1.193-1.776,1.989-2.424c0.796-0.647,1.708-1.135,2.737-1.462C345.005,0.488,346.111,0.325,347.296,0.325z"/>
	<path d="M369.588,10.666c1.012,0,1.994,0.167,2.951,0.5c0.955,0.333,1.797,0.836,2.525,1.508c0.727,0.672,1.312,1.508,1.757,2.507
		s0.666,2.165,0.666,3.497c0,1.246-0.229,2.414-0.685,3.505c-0.456,1.092-1.098,2.044-1.924,2.858s-1.822,1.456-2.988,1.924
		c-1.165,0.469-2.451,0.703-3.857,0.703c-1.43,0-2.713-0.228-3.848-0.685c-1.135-0.456-2.103-1.094-2.904-1.915
		s-1.415-1.807-1.841-2.96c-0.425-1.153-0.638-2.433-0.638-3.839c0-1.258,0.256-2.55,0.768-3.875s1.305-2.704,2.377-4.135
		l6.383-8.566c0.222-0.296,0.545-0.548,0.971-0.758c0.426-0.209,0.916-0.314,1.471-0.314h4.07l-7.937,9.712
		c-0.173,0.21-0.336,0.407-0.49,0.592c-0.154,0.185-0.306,0.376-0.453,0.573c0.519-0.259,1.075-0.462,1.675-0.61
		C368.234,10.74,368.885,10.666,369.588,10.666z M363.188,18.973c0,0.74,0.102,1.415,0.305,2.026
		c0.203,0.61,0.506,1.131,0.906,1.563c0.4,0.432,0.897,0.768,1.489,1.008c0.593,0.241,1.276,0.361,2.054,0.361
		c0.728,0,1.396-0.123,2.008-0.37c0.609-0.247,1.134-0.592,1.572-1.036c0.438-0.444,0.779-0.965,1.026-1.563s0.37-1.249,0.37-1.952
		c0-0.765-0.117-1.453-0.352-2.063s-0.567-1.128-0.999-1.554c-0.432-0.426-0.95-0.75-1.554-0.972
		c-0.604-0.222-1.271-0.333-1.998-0.333c-0.729,0-1.388,0.124-1.98,0.37c-0.592,0.247-1.1,0.589-1.525,1.027
		c-0.426,0.438-0.752,0.956-0.98,1.554S363.188,18.282,363.188,18.973z"/>
	<path d="M396.949,2.563c0,0.654-0.207,1.184-0.62,1.591c-0.413,0.407-1.101,0.61-2.063,0.61h-7.362l-0.962,5.587
		c1.209-0.247,2.312-0.37,3.312-0.37c1.405,0,2.642,0.21,3.709,0.629c1.067,0.419,1.964,0.999,2.692,1.739
		c0.727,0.74,1.275,1.606,1.646,2.599c0.369,0.993,0.555,2.063,0.555,3.21c0,1.418-0.25,2.713-0.75,3.885
		c-0.499,1.172-1.192,2.174-2.08,3.006c-0.889,0.833-1.939,1.477-3.154,1.933c-1.215,0.457-2.538,0.685-3.969,0.685
		c-0.839,0-1.635-0.086-2.387-0.259c-0.752-0.173-1.459-0.404-2.118-0.694c-0.659-0.29-1.271-0.623-1.831-0.999
		c-0.562-0.376-1.064-0.774-1.508-1.193l1.406-1.942c0.295-0.419,0.689-0.629,1.184-0.629c0.309,0,0.619,0.099,0.934,0.296
		s0.682,0.414,1.102,0.647c0.419,0.234,0.906,0.45,1.461,0.647c0.555,0.198,1.228,0.296,2.017,0.296c0.839,0,1.579-0.135,2.22-0.407
		c0.642-0.271,1.176-0.65,1.601-1.138c0.426-0.487,0.746-1.067,0.962-1.739c0.216-0.672,0.324-1.403,0.324-2.192
		c0-1.456-0.423-2.593-1.268-3.414c-0.845-0.82-2.088-1.23-3.728-1.23c-1.295,0-2.597,0.234-3.903,0.703l-2.85-0.814l2.221-12.987
		h13.209V2.563z"/>
</g>
<g>
	<path d="M16.703,6.282c-0.136,0.271-0.293,0.463-0.472,0.574c-0.179,0.111-0.392,0.167-0.638,0.167
		c-0.247,0-0.524-0.095-0.833-0.287c-0.309-0.191-0.672-0.404-1.092-0.638s-0.91-0.447-1.471-0.639
		c-0.562-0.191-1.224-0.287-1.989-0.287c-0.691,0-1.292,0.083-1.804,0.25S7.462,5.819,7.111,6.116
		c-0.352,0.296-0.614,0.65-0.786,1.063c-0.173,0.414-0.259,0.867-0.259,1.36c0,0.629,0.176,1.153,0.527,1.572
		c0.352,0.419,0.817,0.777,1.397,1.073c0.58,0.296,1.239,0.561,1.979,0.795c0.74,0.234,1.495,0.484,2.266,0.749
		c0.771,0.266,1.526,0.574,2.266,0.925c0.74,0.352,1.4,0.795,1.979,1.332s1.045,1.193,1.397,1.97s0.527,1.72,0.527,2.831
		c0,1.208-0.207,2.34-0.62,3.395c-0.413,1.055-1.018,1.974-1.813,2.756c-0.795,0.784-1.767,1.4-2.914,1.85
		c-1.147,0.45-2.46,0.675-3.94,0.675c-0.851,0-1.69-0.083-2.516-0.25c-0.827-0.167-1.619-0.404-2.377-0.712
		c-0.758-0.308-1.468-0.678-2.127-1.11s-1.249-0.913-1.767-1.443l1.443-2.386c0.136-0.172,0.299-0.317,0.49-0.435
		s0.404-0.176,0.638-0.176c0.308,0,0.641,0.126,0.999,0.379c0.358,0.253,0.78,0.534,1.268,0.842c0.487,0.309,1.061,0.589,1.72,0.842
		c0.66,0.253,1.452,0.379,2.377,0.379c1.418,0,2.516-0.336,3.293-1.008c0.777-0.672,1.166-1.637,1.166-2.896
		c0-0.703-0.176-1.276-0.527-1.72s-0.817-0.817-1.396-1.119c-0.58-0.302-1.24-0.558-1.979-0.768
		c-0.74-0.209-1.493-0.438-2.257-0.685c-0.765-0.247-1.517-0.542-2.257-0.888c-0.74-0.345-1.4-0.795-1.979-1.351
		c-0.58-0.555-1.045-1.249-1.397-2.081s-0.527-1.859-0.527-3.081c0-0.974,0.194-1.924,0.583-2.849
		c0.389-0.925,0.956-1.745,1.702-2.461C4.435,2.773,5.35,2.2,6.436,1.768c1.085-0.432,2.325-0.647,3.718-0.647
		c1.579,0,3.034,0.247,4.366,0.74c1.332,0.494,2.467,1.184,3.404,2.072L16.703,6.282z"/>
	<path d="M27.359,18.751v9.417h-4.977V1.417h8.713c1.788,0,3.336,0.21,4.644,0.629c1.307,0.419,2.386,1.005,3.237,1.758
		c0.851,0.752,1.48,1.653,1.887,2.701c0.407,1.048,0.61,2.195,0.61,3.441c0,1.295-0.216,2.482-0.647,3.562s-1.08,2.007-1.942,2.784
		c-0.864,0.777-1.943,1.381-3.238,1.813s-2.812,0.647-4.551,0.647H27.359z M27.359,14.866h3.737c0.913,0,1.708-0.114,2.386-0.342
		s1.24-0.555,1.684-0.98c0.444-0.426,0.777-0.944,0.999-1.554c0.222-0.61,0.333-1.292,0.333-2.044c0-0.715-0.111-1.362-0.333-1.942
		c-0.222-0.58-0.555-1.073-0.999-1.48c-0.444-0.407-1.005-0.718-1.684-0.934s-1.474-0.324-2.386-0.324h-3.737V14.866z"/>
	<path d="M71,14.792c0,1.961-0.327,3.777-0.98,5.448c-0.654,1.671-1.572,3.117-2.756,4.338c-1.184,1.221-2.608,2.174-4.273,2.858
		c-1.665,0.685-3.509,1.027-5.532,1.027s-3.87-0.342-5.541-1.027c-1.671-0.684-3.102-1.637-4.292-2.858
		c-1.19-1.221-2.112-2.667-2.766-4.338c-0.654-1.671-0.981-3.487-0.981-5.448s0.327-3.777,0.981-5.448
		c0.653-1.671,1.575-3.117,2.766-4.338c1.19-1.221,2.621-2.174,4.292-2.858c1.671-0.685,3.518-1.027,5.541-1.027
		s3.867,0.345,5.532,1.036c1.665,0.691,3.089,1.644,4.273,2.858c1.184,1.215,2.103,2.658,2.756,4.329
		C70.674,11.015,71,12.831,71,14.792z M65.895,14.792c0-1.468-0.194-2.784-0.583-3.95c-0.389-1.166-0.947-2.155-1.674-2.969
		c-0.728-0.814-1.613-1.437-2.655-1.869c-1.042-0.432-2.217-0.647-3.524-0.647s-2.485,0.216-3.533,0.647
		c-1.049,0.432-1.94,1.055-2.673,1.869c-0.734,0.814-1.298,1.804-1.693,2.969c-0.395,1.166-0.592,2.482-0.592,3.95
		s0.197,2.784,0.592,3.95c0.395,1.166,0.959,2.152,1.693,2.96c0.733,0.808,1.625,1.428,2.673,1.859
		c1.048,0.432,2.226,0.647,3.533,0.647s2.482-0.216,3.524-0.647c1.042-0.432,1.927-1.051,2.655-1.859
		c0.728-0.808,1.286-1.794,1.674-2.96C65.7,17.576,65.895,16.26,65.895,14.792z"/>
	<path d="M80.066,17.715v10.453h-4.977V1.417h8.158c1.825,0,3.389,0.188,4.69,0.564c1.301,0.376,2.368,0.903,3.2,1.582
		c0.833,0.678,1.443,1.489,1.832,2.433c0.389,0.944,0.583,1.983,0.583,3.117c0,0.9-0.133,1.751-0.398,2.553
		s-0.647,1.529-1.147,2.183s-1.116,1.227-1.85,1.72c-0.734,0.494-1.569,0.888-2.506,1.184c0.629,0.358,1.171,0.87,1.628,1.536
		l6.697,9.879h-4.477c-0.432,0-0.798-0.086-1.101-0.259s-0.558-0.419-0.768-0.74l-5.624-8.565c-0.21-0.321-0.441-0.549-0.694-0.685
		c-0.253-0.136-0.626-0.204-1.119-0.204H80.066z M80.066,14.145h3.108c0.937,0,1.754-0.117,2.451-0.352
		c0.697-0.234,1.27-0.558,1.72-0.971s0.787-0.903,1.008-1.471c0.222-0.567,0.333-1.19,0.333-1.869c0-1.356-0.447-2.398-1.341-3.126
		c-0.894-0.728-2.26-1.091-4.098-1.091h-3.182V14.145z"/>
	<path d="M116.973,1.417v4.088h-8.048v22.663h-4.977V5.505h-8.084V1.417H116.973z"/>
</g>
</svg>
