<svg xmlns="http://www.w3.org/2000/svg" xmlns:xlink="http://www.w3.org/1999/xlink" version="1.1" x="0px" y="0px" width="100px" height="100px" viewBox="5.0 -10.0 100.0 135.0" enable-background="new 0 0 100 100" xml:space="preserve">
<g id="Captions">
</g>
<g id="Your_Icon">
	<path d="M66.667,36.082c-9.803,0-17.778,7.975-17.778,17.777s7.976,17.778,17.778,17.778c9.802,0,17.777-7.976,17.777-17.778   S76.469,36.082,66.667,36.082z M66.667,61.638c-4.296,0-7.778-3.482-7.778-7.778s3.482-7.777,7.778-7.777s7.777,3.481,7.777,7.777   S70.963,61.638,66.667,61.638z M91.111,23.334h-6.728L82,19.027c-1.566-2.828-4.543-4.583-7.777-4.583H59.128   c-3.231,0-6.209,1.753-7.774,4.58l-2.39,4.311h-22.02v-5.16H11.389v5.16h-2.5C3.98,23.334,0,27.314,0,32.223v44.445   c0,4.908,3.98,8.889,8.889,8.889h82.223c4.908,0,8.889-3.98,8.889-8.889V32.223C100,27.314,96.02,23.334,91.111,23.334z    M22.5,71.835c0,1.841-1.492,3.333-3.333,3.333c-1.842,0-3.334-1.492-3.334-3.333V38.304c0-1.841,1.492-3.333,3.334-3.333   c1.841,0,3.333,1.492,3.333,3.333V71.835z M66.667,78.304c-13.501,0-24.444-10.943-24.444-24.444   c0-13.5,10.943-24.444,24.444-24.444c13.5,0,24.444,10.944,24.444,24.444C91.111,67.36,80.167,78.304,66.667,78.304z"/>
</g>
<text x="0.0" y="117.5" font-size="5.0" font-weight="bold" font-family="Helvetica Neue, Helvetica, Arial-Unicode, Arial, Sans-serif" fill="#000000">Created by Lemon Liu</text><text x="0.0" y="122.5" font-size="5.0" font-weight="bold" font-family="Helvetica Neue, Helvetica, Arial-Unicode, Arial, Sans-serif" fill="#000000">from the Noun Project</text></svg>