<svg display="none" version="1.1" xmlns="http://www.w3.org/2000/svg" xmlns:xlink="http://www.w3.org/1999/xlink">
  
  <symbol id="atw" viewBox="0 0 223.5 99" preserveAspectRatio="xMinYMax meet">
    <title>athousandwords.nl</title> 
    <desc>logo of athousandwords.nl</desc>
    <g>
      <path d="M72.393,90.076v8.577h-9.067h-1.988h-6.111c-1.703,0-3.041-0.256-4.013-0.766c-0.974-0.511-1.704-1.544-2.189-3.1
        l-1.605-5.327c-1.897,1.701-3.759,3.198-5.583,4.486c-1.818,1.286-3.704,2.369-5.654,3.248c-1.948,0.876-4.016,1.532-6.202,1.969
        c-2.191,0.439-4.623,0.659-7.298,0.659c-3.159,0-6.079-0.428-8.757-1.28c-2.675-0.854-4.973-2.138-6.894-3.845
        c-1.922-1.71-3.419-3.833-4.489-6.371s-1.604-5.489-1.604-8.859c0-2.829,0.742-5.626,2.225-8.385
        c1.484-2.755,3.953-5.243,7.408-7.465c3.453-2.221,8.049-4.063,13.791-5.527c5.739-1.465,12.866-2.196,21.379-2.196v-4.412
        c0-5.049-1.059-8.787-3.174-11.214c-2.116-2.426-5.193-3.638-9.23-3.64c-2.918,0.001-5.35,0.341-7.298,1.022
        c-1.948,0.683-3.639,1.449-5.071,2.298c-1.422,0.846-2.748,1.612-3.977,2.299c-1.216,0.681-2.553,1.021-4.013,1.02
        c-1.216,0.002-2.262-0.314-3.138-0.947s-1.583-1.412-2.115-2.335l-3.285-5.765C13.049,26.341,23.436,22.4,35.599,22.4
        c4.375,0.001,8.279,0.719,11.711,2.152c3.429,1.436,6.336,3.431,8.72,5.984c2.386,2.558,4.198,5.61,5.437,9.159
        c1.241,3.549,1.861,7.441,1.86,11.673v33.17c1.663,0.294,2.945,0.522,3.845,0.688c0.901,0.163,1.424,0.259,1.572,0.282
        C71.177,86.032,72.395,87.556,72.393,90.076z M45.739,66.912c-5.258,0-9.648,0.329-13.17,0.991c-3.526,0.662-6.359,1.506-8.5,2.536
        c-2.142,1.03-3.663,2.229-4.562,3.602c-0.899,1.371-1.35,2.864-1.35,4.479c0,3.188,0.937,5.466,2.809,6.838
        c1.87,1.371,4.315,2.058,7.333,2.058c1.848,0,3.552-0.167,5.11-0.502c1.557-0.336,3.028-0.84,4.413-1.512
        c1.385-0.668,2.723-1.493,4.014-2.476c1.289-0.979,2.59-2.144,3.904-3.482L45.739,66.912z"/>
      <path d="M80.011,94.461c-3.502-3.676-5.253-8.746-5.253-15.216V37.433h-7.589c-0.974-0.001-1.812-0.317-2.518-0.95
        c-0.707-0.633-1.059-1.581-1.059-2.846v-7.151l12.041-1.97l3.794-20.432c0.195-0.974,0.645-1.728,1.35-2.262
        c0.705-0.536,1.594-0.803,2.663-0.802h9.34v23.569h19.704l13.04,13.991l-32.743-1.147v40.571c0,2.337,0.585,4.16,1.751,5.475
        c1.168,1.312,2.724,1.969,4.67,1.969c1.119,0,2.056-0.134,2.81-0.4c0.754-0.268,1.41-0.547,1.97-0.841
        c0.56-0.291,1.059-0.57,1.497-0.837c0.438-0.268,0.876-0.401,1.312-0.401c0.536,0,0.974,0.134,1.314,0.401
        c0.341,0.267,0.705,0.668,1.096,1.202l5.399,8.759c-2.626,2.188-5.643,3.842-9.048,4.961s-6.933,1.678-10.582,1.678
        C88.501,99.969,83.515,98.134,80.011,94.461z"/>
      <path d="M224.459,23.938v8.579c0,2.521-1.218,4.042-3.652,4.563c-1.122,0.197-0.691,0.138-6.904,1.235l-19.16,60.487h-14.521
        c-1.557,0-2.676-1.069-3.356-3.21l-13.499-43.272c-0.437-1.41-0.839-2.832-1.204-4.268c-0.365-1.434-0.668-2.857-0.913-4.27
        c-0.291,1.461-0.607,2.908-0.947,4.342c-0.343,1.436-0.73,2.883-1.17,4.342l-13.644,43.125c-0.683,2.141-1.997,3.21-3.94,3.21
        h-13.792l-19.16-60.488c-6.202-1.094-5.773-1.035-6.894-1.233c-2.435-0.521-3.652-2.043-3.652-4.563l-15.722-8.504l21.713-0.074
        v-0.001h14.301c0.011,0,0.02,0.001,0.03,0.001h16.142v8.579c0.002,2.521-1.215,4.042-3.651,4.563
        c-0.91,0.16-1.125,0.209-4.497,0.809l7.884,29.391c0.583,2.188,1.057,4.329,1.422,6.422c0.365,2.09,0.717,4.184,1.059,6.273
        c0.534-2.09,1.105-4.184,1.714-6.273c0.607-2.093,1.251-4.233,1.933-6.422l12.406-40.133c0.293-0.974,0.876-1.775,1.752-2.408
        c0.876-0.632,1.897-0.948,3.063-0.948h7.954c1.315,0,2.408,0.316,3.285,0.948c0.874,0.633,1.458,1.434,1.75,2.408l12.259,40.863
        c0.634,2.09,1.206,4.121,1.717,6.092c0.511,1.969,1.009,3.952,1.496,5.947c0.34-2.09,0.717-4.184,1.13-6.276
        c0.414-2.09,0.937-4.255,1.57-6.493l8.115-29.262c-4.071-0.721-4.257-0.768-5.229-0.938c-2.435-0.521-3.651-2.043-3.651-4.563
        v-8.579h16.792c0.009,0,0.017-0.001,0.026-0.001h13.646v0.001H224.459z"/>
    </g>
  </symbol>
  
  <symbol id="icon-facebook" viewBox="0 0 100 100" preserveAspectRatio="xMinYMid meet">
    <title>facebook</title>
    <desc>facebook icon</desc>
    <g>
      <path d="M38.078,22.431c0,2.268,0,12.391,0,12.391H29v15.152h9.078V95h18.649V49.975h12.513
	c0,0,1.172-7.265,1.74-15.209c-1.629,0-14.183,0-14.183,0s0-8.815,0-10.36c0-1.548,2.033-3.631,4.043-3.631c2.006,0,6.239,0,10.16,0
	c0-2.063,0-9.191,0-15.774c-5.235,0-11.189,0-13.814,0C37.617,5,38.078,20.167,38.078,22.431z"/>
    </g>
  </symbol>
  
  <symbol id="icon-google" viewBox="0 0 100 100" preserveAspectRatio="xMinYMid meet">
    <title>google</title>
    <desc>google icon</desc>
    <g>
      <path d="M79.5,5H55.145c-6.383,0-14.422,0.942-21.158,6.49c-5.09,4.374-7.566,10.392-7.566,15.828
	c0,9.211,7.094,18.546,19.625,18.546c1.182,0,2.477-0.12,3.787-0.235c-0.592,1.413-1.189,2.594-1.189,4.605
	c0,3.663,1.893,5.903,3.547,8.03c-5.314,0.352-15.248,0.942-22.582,5.428c-6.975,4.142-9.107,10.16-9.107,14.414
	C20.5,86.846,28.779,95,45.924,95c20.336,0,31.098-11.22,31.098-22.33c0-8.142-4.73-12.164-9.932-16.534l-4.258-3.305
	c-1.295-1.065-3.068-2.479-3.068-5.08c0-2.597,1.773-4.254,3.307-5.789c4.963-3.896,9.932-8.03,9.932-16.77
	c0-8.979-5.68-13.704-8.396-15.947h7.334L79.5,5z M69.104,77.279c0,7.323-6.033,12.753-17.385,12.753
	c-12.648,0-20.809-6.024-20.809-14.405c0-8.392,7.568-11.218,10.166-12.164c4.969-1.656,11.352-1.891,12.414-1.891
	c1.184,0,1.775,0,2.725,0.116C65.203,68.065,69.104,71.257,69.104,77.279z M59.643,39.249c-1.893,1.886-5.088,3.305-8.045,3.305
	c-10.164,0-14.773-13.113-14.773-21.023c0-3.072,0.592-6.258,2.598-8.74c1.893-2.362,5.201-3.899,8.277-3.899
	c9.811,0,14.9,13.229,14.9,21.73C62.6,32.752,62.359,36.528,59.643,39.249z"/>
    </g>
  </symbol>

  <symbol id="icon-pinterest" viewBox="0 0 77.796 100" preserveAspectRatio="xMinYMid meet">
    <title>pinterest</title>
    <desc>pinterest icon</desc>
    <g>
      <path d="M31.979,66.139C29.353,79.906,26.146,93.105,16.646,100c-2.932-20.809,4.307-36.436,7.668-53.027
	c-5.73-9.646,0.689-29.062,12.777-24.277c14.873,5.885-12.881,35.865,5.75,39.611c19.453,3.908,27.395-33.752,15.332-46
	C40.745-1.377,7.44,15.904,11.536,41.223c0.996,6.191,7.391,8.068,2.555,16.611c-11.154-2.473-14.484-11.27-14.055-23
	C0.726,15.637,17.286,2.195,33.896,0.336c21.006-2.352,40.721,7.711,43.443,27.471c3.066,22.303-9.48,46.459-31.943,44.721
	C39.308,72.055,36.751,69.039,31.979,66.139z"/>
    </g>
  </symbol>

  <symbol id="icon-twitter" viewBox="0 0 100 100" preserveAspectRatio="xMinYMax meet">
    <title>twitter</title>
    <desc>twitter icon</desc>
    <g>
      <path d="M84.803,46.564c5.055-0.417,8.483-2.715,9.803-5.833c-1.824,1.12-7.484,2.341-10.61,1.178
	c-0.153-0.734-0.324-1.432-0.492-2.062c-2.382-8.746-10.537-15.792-19.082-14.941c0.691-0.279,1.392-0.539,2.092-0.772
	c0.94-0.337,6.459-1.235,5.59-3.183c-0.733-1.713-7.475,1.295-8.744,1.688c1.675-0.63,4.447-1.714,4.743-3.64
	c-2.567,0.352-5.087,1.566-7.034,3.331c0.703-0.757,1.236-1.679,1.349-2.672C55.57,24.033,51.57,32.853,48.333,41.408
	c-2.542-2.463-4.795-4.403-6.816-5.48c-5.67-3.041-12.449-6.213-23.091-10.164c-0.327,3.521,1.741,8.203,7.7,11.316
	c-1.291-0.173-3.652,0.213-5.54,0.665c0.769,4.034,3.28,7.357,10.079,8.964c-3.107,0.205-4.713,0.912-6.168,2.436
	c1.415,2.805,4.868,6.107,11.08,5.429c-6.906,2.977-2.816,8.49,2.804,7.667C28.794,72.143,13.679,71.416,5,63.134
	c22.661,30.879,71.921,18.262,79.262-11.481c5.499,0.047,8.733-1.905,10.738-4.057C91.831,48.134,87.239,47.578,84.803,46.564z"/>
    </g>
  </symbol>

  <symbol id="icon-whatsapp" viewBox="0 0 100 100" preserveAspectRatio="xMinYMax meet">
    <title>whatsapp</title>
    <desc>whatsapp icon</desc>
    <g>
      <path d="M95,49.247c0,24.213-19.779,43.841-44.182,43.841
	c-7.746,0-15.025-1.98-21.357-5.455L5,95.406l7.975-23.522c-4.023-6.607-6.34-14.355-6.34-22.637
	c0-24.213,19.781-43.841,44.184-43.841S95,25.034,95,49.247z M50.818,12.388c-20.484,0-37.146,16.535-37.146,36.859
	c0,8.065,2.629,15.534,7.076,21.611l-4.641,13.688l14.275-4.537c5.865,3.851,12.891,6.097,20.436,6.097
	c20.482,0,37.146-16.534,37.146-36.858S71.301,12.388,50.818,12.388z M73.129,59.344c-0.273-0.447-0.994-0.717-2.076-1.254
	c-1.084-0.537-6.41-3.138-7.4-3.495c-0.994-0.358-1.717-0.539-2.439,0.537c-0.721,1.076-2.797,3.495-3.43,4.212
	c-0.631,0.718-1.262,0.808-2.346,0.27c-1.082-0.537-4.572-1.672-8.709-5.333c-3.219-2.848-5.393-6.364-6.025-7.441
	c-0.631-1.075-0.066-1.656,0.475-2.191c0.488-0.482,1.084-1.255,1.625-1.882c0.543-0.628,0.723-1.075,1.082-1.793
	c0.363-0.717,0.182-1.344-0.09-1.883c-0.27-0.537-2.438-5.825-3.34-7.977c-0.902-2.15-1.803-1.792-2.436-1.792
	c-0.631,0-1.354-0.09-2.076-0.09s-1.896,0.269-2.889,1.344c-0.992,1.076-3.789,3.676-3.789,8.963c0,5.288,3.879,10.397,4.422,11.113
	c0.541,0.716,7.49,11.92,18.5,16.223c11.012,4.302,11.012,2.867,12.998,2.688c1.984-0.179,6.406-2.599,7.311-5.108
	C73.398,61.944,73.398,59.792,73.129,59.344z"/>
    </g>
  </symbol>
  
  <symbol id="icon-location" viewBox="0 0 512 512" preserveAspectRatio="xMinYMid meet">
    <title>Location marker</title>
    <desc>marker icon</desc>
    <g>
      <path d="M256,0C149.969,0,64,85.969,64,192s160,320,192,320s192-213.969,192-320S362.031,0,256,0z M256,320
	c-70.594,0-128-57.438-128-128S185.406,64,256,64s128,57.438,128,128S326.594,320,256,320z"/>
    </g>
  </symbol>                    
</svg>