<?xml version="1.0" encoding="utf-8"?>
<!-- Generator: Adobe Illustrator 18.0.0, SVG Export Plug-In . SVG Version: 6.00 Build 0)  -->
<!DOCTYPE svg PUBLIC "-//W3C//DTD SVG 1.1//EN" "http://www.w3.org/Graphics/SVG/1.1/DTD/svg11.dtd">
<svg version="1.1" id="Capa_1" xmlns="http://www.w3.org/2000/svg" xmlns:xlink="http://www.w3.org/1999/xlink" x="0px" y="0px"
	 viewBox="0 0 48 48" enable-background="new 0 0 48 48" xml:space="preserve">
<g id="Layer_1">
	<g>
		<path d="M45.7,29.8l-4.6-9.2c-5.9,0.6-7.9,1.8-8.6,2.7c-0.1,0.2-0.5,0.7-0.1,1.9c0.9,3.1,0,5.2-0.9,6.4c-2.2,3-7.2,4.3-16,4.3
			c-2.7,0-4.6,0.6-5.2,1.5c-0.6,0.9-0.2,2.5,0,3l0,0h23.7c0.9,0,1.7-0.5,2.1-1.2c0.5-0.7,0.5-1.7,0.1-2.4l-1.6-3.3h8.7
			c0.9,0,1.7-0.5,2.1-1.2C46.1,31.5,46.1,30.6,45.7,29.8z"/>
		<path d="M27.7,28.7c0.1-0.2,0.5-0.7,0.1-2.1c-0.8-2.8,0-4.8,0.8-6c1.6-2.4,4.8-3.8,10.3-4.6l-2.3-4.7c-0.4-0.9-1.3-1.4-2.3-1.4
			s-1.8,0.5-2.3,1.4l-4.1,8.3L21.4,6.2c-0.4-0.9-1.3-1.4-2.3-1.4c-1,0-1.8,0.5-2.3,1.4L1.8,36.7c-0.4,0.8-0.3,1.7,0.1,2.5
			c0.5,0.7,1.3,1.2,2.1,1.2h1.4c-0.3-1.5-0.4-3.6,0.9-5.6c1.6-2.5,4.7-3.8,9.3-3.8C24.6,31,27.1,29.6,27.7,28.7z"/>
	</g>
</g>
</svg>
