<svg display="none" version="1.1" xmlns="http://www.w3.org/2000/svg" xmlns:xlink="http://www.w3.org/1999/xlink">
<defs>
<symbol id="atw" viewBox="0 0 122 37" preserveAspectRatio="xMinYMax meet">
<title>logo athousandwords.nl</title>
<g>
	<path d="M24.441,34.188v2.821h-2.982h-0.654h-2.01c-0.56,0-1-0.084-1.32-0.252c-0.32-0.168-0.561-0.508-0.72-1.02l-0.528-1.752
		c-0.624,0.56-1.236,1.052-1.836,1.476c-0.598,0.423-1.218,0.779-1.86,1.068c-0.641,0.288-1.321,0.504-2.04,0.647
		c-0.721,0.145-1.521,0.217-2.4,0.217c-1.039,0-2-0.141-2.88-0.421c-0.88-0.281-1.636-0.703-2.268-1.265
		c-0.632-0.562-1.125-1.261-1.477-2.096s-0.528-1.806-0.528-2.914c0-0.931,0.244-1.851,0.732-2.758
		c0.488-0.906,1.3-1.725,2.437-2.456c1.136-0.73,2.647-1.336,4.536-1.818c1.888-0.482,4.232-0.723,7.032-0.723v-1.451
		c0-1.661-0.348-2.89-1.044-3.688c-0.696-0.798-1.708-1.197-3.036-1.197c-0.96,0-1.76,0.112-2.4,0.336
		c-0.641,0.225-1.197,0.477-1.668,0.756c-0.468,0.278-0.904,0.53-1.308,0.756c-0.4,0.224-0.84,0.336-1.32,0.335
		c-0.4,0-0.744-0.104-1.032-0.312s-0.521-0.464-0.696-0.768l-1.081-1.896c2.832-2.592,6.249-3.889,10.249-3.889
		c1.439,0,2.723,0.236,3.852,0.708c1.128,0.472,2.084,1.128,2.868,1.968c0.785,0.841,1.381,1.845,1.788,3.013
		c0.408,1.167,0.612,2.448,0.612,3.84v10.91c0.547,0.097,0.969,0.172,1.265,0.227c0.296,0.054,0.468,0.085,0.517,0.093
		C24.041,32.858,24.441,33.359,24.441,34.188z M15.674,26.569c-1.729,0-3.173,0.108-4.332,0.326
		c-1.16,0.218-2.092,0.495-2.796,0.834c-0.705,0.339-1.205,0.733-1.5,1.185s-0.444,0.942-0.444,1.474
		c0,1.049,0.308,1.798,0.924,2.249c0.615,0.451,1.419,0.677,2.412,0.677c0.608,0,1.168-0.055,1.681-0.165s0.996-0.276,1.452-0.497
		c0.456-0.22,0.896-0.491,1.32-0.814c0.424-0.322,0.852-0.705,1.284-1.146L15.674,26.569z"/>
	<path d="M26.947,35.38c-1.152-1.209-1.728-2.877-1.728-5.005V16.623h-2.496c-0.32,0-0.596-0.104-0.828-0.312
		c-0.232-0.208-0.348-0.52-0.348-0.936v-2.352l3.96-0.648l1.248-6.721c0.064-0.32,0.212-0.568,0.444-0.744
		c0.232-0.176,0.524-0.264,0.876-0.264h3.072v7.752h6.481L41.917,17l-10.77-0.377v13.345c0,0.769,0.192,1.368,0.576,1.801
		c0.384,0.432,0.896,0.647,1.536,0.647c0.368,0,0.676-0.044,0.924-0.132s0.464-0.18,0.648-0.276
		c0.184-0.096,0.348-0.188,0.492-0.275s0.288-0.132,0.432-0.132c0.176,0,0.32,0.044,0.432,0.132c0.112,0.088,0.232,0.22,0.36,0.396
		l1.776,2.881c-0.864,0.72-1.856,1.264-2.976,1.632s-2.28,0.552-3.48,0.552C29.739,37.192,28.099,36.588,26.947,35.38z"/>
	<path d="M74.459,12.434v2.822c0,0.829-0.4,1.33-1.201,1.501c-0.369,0.065-0.228,0.045-2.271,0.406l-6.302,19.896h-4.776
		c-0.512,0-0.88-0.352-1.104-1.056l-4.44-14.233c-0.144-0.464-0.276-0.932-0.396-1.404c-0.12-0.472-0.22-0.94-0.3-1.404
		c-0.096,0.48-0.2,0.957-0.312,1.428c-0.113,0.472-0.24,0.948-0.385,1.428l-4.488,14.185c-0.225,0.704-0.657,1.056-1.296,1.056
		h-4.537l-6.302-19.896c-2.04-0.36-1.899-0.34-2.268-0.406c-0.801-0.171-1.201-0.672-1.201-1.501l-5.171-2.797l7.142-0.024v0h4.704
		c0.003,0,0.006,0,0.01,0h5.31v2.822c0,0.829-0.4,1.33-1.201,1.501c-0.299,0.053-0.37,0.069-1.479,0.266l2.593,9.667
		c0.192,0.72,0.348,1.424,0.468,2.112c0.12,0.688,0.236,1.376,0.348,2.063c0.176-0.688,0.364-1.376,0.564-2.063
		c0.2-0.688,0.412-1.393,0.636-2.112l4.081-13.201c0.096-0.32,0.288-0.584,0.576-0.792s0.624-0.312,1.008-0.312h2.616
		c0.433,0,0.792,0.104,1.081,0.312c0.288,0.208,0.479,0.472,0.576,0.792l4.032,13.441c0.208,0.688,0.396,1.355,0.564,2.004
		c0.168,0.647,0.332,1.3,0.492,1.956c0.112-0.688,0.236-1.376,0.372-2.064c0.136-0.688,0.308-1.399,0.517-2.136l2.669-9.625
		c-1.339-0.237-1.4-0.252-1.72-0.309c-0.801-0.171-1.201-0.672-1.201-1.501v-2.822h5.523c0.003,0,0.005,0,0.009,0h4.488v0H74.459z"
		/>
</g>
<path fill="none" d="M24.441,36.134"/>
<path fill="none" stroke="#000000" d="M30.208,35.625"/>
<path fill="none" stroke="#000000" d="M24.021,35.625"/>
<g>
	<path d="M69.61,32.132c0.184-0.448,0.44-0.833,0.769-1.152c0.328-0.32,0.716-0.576,1.164-0.768c0.448-0.192,0.928-0.288,1.44-0.288
		c0.496,0,0.968,0.096,1.416,0.288c0.448,0.192,0.832,0.448,1.152,0.768c0.32,0.32,0.576,0.704,0.768,1.152
		c0.192,0.448,0.288,0.92,0.288,1.417c0,0.512-0.096,0.988-0.288,1.428c-0.192,0.44-0.448,0.82-0.768,1.14
		c-0.32,0.32-0.704,0.572-1.152,0.756c-0.448,0.184-0.92,0.276-1.416,0.276c-0.512,0-0.992-0.092-1.44-0.276
		c-0.448-0.184-0.836-0.436-1.164-0.756c-0.328-0.32-0.584-0.7-0.768-1.14c-0.184-0.44-0.276-0.917-0.276-1.428
		C69.334,33.052,69.427,32.58,69.61,32.132z"/>
	<path d="M107.909,34.178V37h-3.637h-5.928V21.327c0-1.504-0.348-2.668-1.044-3.492c-0.696-0.824-1.74-1.236-3.132-1.236
		c-1.024,0-1.984,0.232-2.88,0.696c-0.896,0.464-1.744,1.096-2.544,1.896v13.052c0.599,0.105,1.07,0.189,1.415,0.251
		s0.583,0.104,0.715,0.129s0.232,0.042,0.301,0.055c0.801,0.171,1.201,0.672,1.201,1.501V37h-3.631h-5.929h-3.636v-2.822
		c0-0.829,0.4-1.33,1.201-1.501c0.07-0.013,0.171-0.031,0.301-0.055c0.131-0.024,0.369-0.067,0.715-0.129
		c0.346-0.062,0.819-0.146,1.418-0.252V17.133c-0.6-0.105-1.073-0.189-1.418-0.251c-0.346-0.062-0.584-0.105-0.715-0.129
		c-0.13-0.024-0.231-0.042-0.301-0.055c-0.801-0.171-1.201-0.672-1.201-1.501v-2.821h3.636l3.624,0c0.768,0,1.272,0.36,1.512,1.08
		l0.408,1.944c0.496-0.512,1.021-0.976,1.572-1.392c0.552-0.416,1.136-0.776,1.752-1.081s1.276-0.536,1.98-0.696
		c0.706-0.161,1.474-0.24,2.304-0.24c1.343,0,2.536,0.228,3.576,0.685c1.04,0.455,1.908,1.095,2.604,1.92
		c0.696,0.824,1.224,1.808,1.584,2.952c0.36,1.144,0.54,2.404,0.54,3.78l0,10.915c0.6,0.106,1.072,0.19,1.418,0.252
		s0.585,0.105,0.715,0.129s0.231,0.042,0.301,0.055C107.509,32.849,107.909,33.349,107.909,34.178z"/>
	<path d="M120.908,34.177v2.822h-3.636h-5.928h-3.636v-2.822c0-0.829,0.4-1.33,1.201-1.501c0.07-0.012,0.17-0.031,0.301-0.055
		s0.37-0.067,0.715-0.129s0.819-0.146,1.418-0.252V6.091c-0.6-0.106-1.073-0.19-1.418-0.252c-0.346-0.062-0.584-0.105-0.715-0.129
		c-0.13-0.024-0.231-0.042-0.301-0.055c-0.801-0.171-1.202-0.672-1.201-1.501V1.333h3.637h5.928v30.908
		c0.6,0.105,1.072,0.189,1.418,0.251s0.585,0.105,0.716,0.129c0.13,0.024,0.231,0.042,0.301,0.054
		C120.508,32.848,120.908,33.348,120.908,34.177z"/>
</g>
</symbol>
<symbol id="icon-pencil" viewBox="0 0 1024 1024">
	<title>pencil</title>
	<path class="path1" d="M864 0c88.364 0 160 71.634 160 160 0 36.020-11.91 69.258-32 96l-64 64-224-224 64-64c26.742-20.090 59.978-32 96-32zM64 736l-64 288 288-64 592-592-224-224-592 592zM715.578 363.578l-448 448-55.156-55.156 448-448 55.156 55.156z"></path>
</symbol>
<symbol id="icon-image" viewBox="0 0 1024 1024">
	<title>image</title>
	<path class="path1" d="M959.884 128c0.040 0.034 0.082 0.076 0.116 0.116v767.77c-0.034 0.040-0.076 0.082-0.116 0.116h-895.77c-0.040-0.034-0.082-0.076-0.114-0.116v-767.772c0.034-0.040 0.076-0.082 0.114-0.114h895.77zM960 64h-896c-35.2 0-64 28.8-64 64v768c0 35.2 28.8 64 64 64h896c35.2 0 64-28.8 64-64v-768c0-35.2-28.8-64-64-64v0z"></path>
	<path class="path2" d="M832 288c0 53.020-42.98 96-96 96s-96-42.98-96-96 42.98-96 96-96 96 42.98 96 96z"></path>
	<path class="path3" d="M896 832h-768v-128l224-384 256 320h64l224-192z"></path>
</symbol>
<symbol id="icon-video-camera" viewBox="0 0 1024 1024">
	<title>video-camera</title>
	<path class="path1" d="M384 288c0-88.366 71.634-160 160-160s160 71.634 160 160c0 88.366-71.634 160-160 160s-160-71.634-160-160zM0 288c0-88.366 71.634-160 160-160s160 71.634 160 160c0 88.366-71.634 160-160 160s-160-71.634-160-160zM768 608v-96c0-35.2-28.8-64-64-64h-640c-35.2 0-64 28.8-64 64v320c0 35.2 28.8 64 64 64h640c35.2 0 64-28.8 64-64v-96l256 160v-448l-256 160zM640 768h-512v-192h512v192z"></path>
</symbol>
<symbol id="icon-price-tag" viewBox="0 0 1024 1024">
	<title>price-tag</title>
	<path class="path1" d="M976 0h-384c-26.4 0-63.274 15.274-81.942 33.942l-476.116 476.116c-18.668 18.668-18.668 49.214 0 67.882l412.118 412.118c18.668 18.668 49.214 18.668 67.882 0l476.118-476.118c18.666-18.666 33.94-55.54 33.94-81.94v-384c0-26.4-21.6-48-48-48zM736 384c-53.020 0-96-42.98-96-96s42.98-96 96-96 96 42.98 96 96-42.98 96-96 96z"></path>
</symbol>
<symbol id="icon-envelop" viewBox="0 0 1024 1024">
	<title>envelop</title>
	<path class="path1" d="M928 128h-832c-52.8 0-96 43.2-96 96v640c0 52.8 43.2 96 96 96h832c52.8 0 96-43.2 96-96v-640c0-52.8-43.2-96-96-96zM398.74 550.372l-270.74 210.892v-501.642l270.74 290.75zM176.38 256h671.24l-335.62 252-335.62-252zM409.288 561.698l102.712 110.302 102.71-110.302 210.554 270.302h-626.528l210.552-270.302zM625.26 550.372l270.74-290.75v501.642l-270.74-210.892z"></path>
</symbol>
<symbol id="icon-location" viewBox="0 0 1024 1024">
	<title>location</title>
	<path class="path1" d="M512 0c-176.732 0-320 143.268-320 320 0 320 320 704 320 704s320-384 320-704c0-176.732-143.27-320-320-320zM512 512c-106.040 0-192-85.96-192-192s85.96-192 192-192 192 85.96 192 192-85.96 192-192 192z"></path>
</symbol>
<symbol id="icon-clock" viewBox="0 0 1024 1024">
	<title>clock</title>
	<path class="path1" d="M658.744 749.256l-210.744-210.746v-282.51h128v229.49l173.256 173.254zM512 0c-282.77 0-512 229.23-512 512s229.23 512 512 512 512-229.23 512-512-229.23-512-512-512zM512 896c-212.078 0-384-171.922-384-384s171.922-384 384-384c212.078 0 384 171.922 384 384s-171.922 384-384 384z"></path>
</symbol>
<symbol id="icon-stopwatch" viewBox="0 0 1024 1024">
	<title>stopwatch</title>
	<path class="path1" d="M512.002 193.212v-65.212h128v-64c0-35.346-28.654-64-64.002-64h-191.998c-35.346 0-64 28.654-64 64v64h128v65.212c-214.798 16.338-384 195.802-384 414.788 0 229.75 186.25 416 416 416s416-186.25 416-416c0-218.984-169.202-398.448-384-414.788zM706.276 834.274c-60.442 60.44-140.798 93.726-226.274 93.726s-165.834-33.286-226.274-93.726c-60.44-60.44-93.726-140.8-93.726-226.274s33.286-165.834 93.726-226.274c58.040-58.038 134.448-91.018 216.114-93.548l-21.678 314.020c-1.86 26.29 12.464 37.802 31.836 37.802s33.698-11.512 31.836-37.802l-21.676-314.022c81.666 2.532 158.076 35.512 216.116 93.55 60.44 60.44 93.726 140.8 93.726 226.274s-33.286 165.834-93.726 226.274z"></path>
</symbol>
<symbol id="icon-calendar" viewBox="0 0 1024 1024">
	<title>calendar</title>
	<path class="path1" d="M320 384h128v128h-128zM512 384h128v128h-128zM704 384h128v128h-128zM128 768h128v128h-128zM320 768h128v128h-128zM512 768h128v128h-128zM320 576h128v128h-128zM512 576h128v128h-128zM704 576h128v128h-128zM128 576h128v128h-128zM832 0v64h-128v-64h-448v64h-128v-64h-128v1024h960v-1024h-128zM896 960h-832v-704h832v704z"></path>
</symbol>
<symbol id="icon-bubbles4" viewBox="0 0 1152 1024">
	<title>bubbles4</title>
	<path class="path1" d="M480 128c-50.666 0-99.582 7.95-145.386 23.628-42.924 14.694-81.114 35.436-113.502 61.646-60.044 48.59-93.112 110.802-93.112 175.174 0 35.99 10.066 70.948 29.92 103.898 20.686 34.34 51.898 65.794 90.26 90.958 30.44 19.968 50.936 51.952 56.362 87.95 0.902 5.99 1.63 12.006 2.18 18.032 2.722-2.52 5.424-5.114 8.114-7.794 24.138-24.040 56.688-37.312 90.322-37.312 5.348 0 10.718 0.336 16.094 1.018 19.36 2.452 39.124 3.696 58.748 3.696 50.666 0 99.58-7.948 145.384-23.628 42.926-14.692 81.116-35.434 113.504-61.644 60.046-48.59 93.112-110.802 93.112-175.174s-33.066-126.582-93.112-175.174c-32.388-26.212-70.578-46.952-113.504-61.646-45.804-15.678-94.718-23.628-145.384-23.628zM480 0v0c265.096 0 480 173.914 480 388.448s-214.904 388.448-480 388.448c-25.458 0-50.446-1.62-74.834-4.71-103.106 102.694-222.172 121.108-341.166 123.814v-25.134c64.252-31.354 116-88.466 116-153.734 0-9.106-0.712-18.048-2.030-26.794-108.558-71.214-177.97-179.988-177.97-301.89 0-214.534 214.904-388.448 480-388.448zM996 870.686c0 55.942 36.314 104.898 92 131.772v21.542c-103.126-2.318-197.786-18.102-287.142-106.126-21.14 2.65-42.794 4.040-64.858 4.040-95.47 0-183.408-25.758-253.614-69.040 144.674-0.506 281.26-46.854 384.834-130.672 52.208-42.252 93.394-91.826 122.414-147.348 30.766-58.866 46.366-121.582 46.366-186.406 0-10.448-0.45-20.836-1.258-31.168 72.57 59.934 117.258 141.622 117.258 231.676 0 104.488-60.158 197.722-154.24 258.764-1.142 7.496-1.76 15.16-1.76 22.966z"></path>
</symbol>
<symbol id="icon-road" viewBox="0 0 1024 1024">
	<title>road</title>
	<path class="path1" d="M704 1024h320l-256-1024h-192l32 256h-192l32-256h-192l-256 1024h320l32-256h320l32 256zM368 640l32-256h224l32 256h-288z"></path>
</symbol>
<symbol id="icon-accessibility" viewBox="0 0 1024 1024">
	<title>accessibility</title>
	<path class="path1" d="M416 96c0-53.018 42.98-96 96-96s96 42.982 96 96c0 53.020-42.98 96-96 96s-96-42.98-96-96z"></path>
	<path class="path2" d="M640 320l329.596-142.172-23.77-59.424-401.826 137.596h-64l-401.826-137.596-23.77 59.424 329.596 142.172v256l-131.27 424.57 59.84 22.7 185.716-415.27h27.428l185.716 415.27 59.84-22.7-131.27-424.57z"></path>
</symbol>
<symbol id="icon-heart" viewBox="0 0 1024 1024">
	<title>heart</title>
	<path class="path1" d="M755.188 64c-107.63 0-200.258 87.554-243.164 179-42.938-91.444-135.578-179-243.216-179-148.382 0-268.808 120.44-268.808 268.832 0 301.846 304.5 380.994 512.022 679.418 196.154-296.576 511.978-387.206 511.978-679.418 0-148.392-120.43-268.832-268.812-268.832z"></path>
</symbol>
<symbol id="icon-heart-broken" viewBox="0 0 1024 1024">
	<title>heart-broken</title>
	<path class="path1" d="M755.188 64c148.382 0 268.812 120.44 268.812 268.832 0 292.21-315.824 382.842-511.978 679.418-207.522-298.424-512.022-377.572-512.022-679.418 0-148.392 120.426-268.832 268.808-268.832 60.354 0 115.99 27.53 160.796 67.834l-77.604 124.166 224 128-128 320 352-384-224-128 61.896-92.846c35.42-21.768 75.21-35.154 117.292-35.154z"></path>
</symbol>
<symbol id="icon-arrow-right" viewBox="0 0 1024 1024">
	<title>arrow-right</title>
	<path class="path1" d="M992 512l-480-480v288h-512v384h512v288z"></path>
</symbol>
<symbol id="icon-embed2" viewBox="0 0 1280 1024">
	<title>embed2</title>
	<path class="path1" d="M832 736l96 96 320-320-320-320-96 96 224 224z"></path>
	<path class="path2" d="M448 288l-96-96-320 320 320 320 96-96-224-224z"></path>
	<path class="path3" d="M701.298 150.519l69.468 18.944-191.987 704.026-69.468-18.944 191.987-704.026z"></path>
</symbol>
<symbol id="icon-google-plus2" viewBox="0 0 1024 1024">
	<title>google-plus2</title>
	<path class="path1" d="M0.806 869.664c-0.244-2.532-0.452-5.070-0.584-7.63 0.13 2.56 0.34 5.098 0.584 7.63zM235.908 565.148c92.010 2.738 153.734-92.698 137.862-213.198-15.894-120.48-103.396-217.168-195.408-219.922-92.026-2.73-153.74 89.482-137.852 210 15.882 120.468 103.352 220.374 195.398 223.12zM1024 256v-85.31c0-93.88-76.782-170.69-170.658-170.69h-682.656c-92.276 0-168.012 74.232-170.564 165.926 58.362-51.386 139.324-94.316 222.874-94.316 89.304 0 357.244 0 357.244 0l-79.948 67.618h-113.268c75.13 28.804 115.156 116.124 115.156 205.722 0 75.248-41.81 139.954-100.888 185.968-57.644 44.902-68.572 63.708-68.572 101.878 0 32.578 61.746 88 94.032 110.788 94.382 66.538 124.916 128.312 124.916 231.456 0 16.428-2.042 32.83-6.066 48.96h307.742c93.874 0 170.656-76.75 170.656-170.69v-533.308h-192v191.998h-64v-192h-191.998v-64h191.998v-192h64v192h192zM185.886 765.936c21.614 0 41.422-0.59 61.936-0.59-27.146-26.334-48.626-58.6-48.626-98.38 0-23.608 7.564-46.336 18.134-66.52-10.782 0.77-21.79 0.994-33.126 0.994-74.356 0-137.506-24.076-184.204-63.854v67.242l0.006 201.73c53.44-25.374 116.888-40.622 185.88-40.622zM3.42 887.258c-1.112-5.458-1.966-11.006-2.542-16.634 0.574 5.628 1.43 11.176 2.542 16.634zM455.45 952.846c-15.058-58.806-68.454-87.964-142.888-139.568-27.072-8.732-56.894-13.874-88.894-14.208-89.618-0.964-173.108 34.942-220.216 88.372 15.92 77.706 85.034 136.558 167.234 136.558h286.444c1.816-11.128 2.696-22.632 2.696-34.432 0-12.534-1.534-24.792-4.376-36.722z"></path>
</symbol>
<symbol id="icon-facebook" viewBox="0 0 1024 1024">
	<title>facebook</title>
	<path class="path1" d="M672 192c-88.366 0-160 71.634-160 160v96h-128v128h128v448h128v-448h144l32-128h-176v-96c0-17.672 14.326-32 32-32h160v-128h-160z"></path>
</symbol>
<symbol id="icon-facebook2" viewBox="0 0 1024 1024">
	<title>facebook2</title>
	<path class="path1" d="M853.35 0h-682.702c-94.25 0-170.648 76.42-170.648 170.686v682.63c0 94.266 76.398 170.684 170.648 170.684h341.352v-448h-128v-128h128v-96c0-88.366 71.634-160 160-160h160v128h-160c-17.674 0-32 14.328-32 32v96h176l-32 128h-144v448h213.35c94.25 0 170.65-76.418 170.65-170.684v-682.63c0-94.266-76.4-170.686-170.65-170.686z"></path>
</symbol>
<symbol id="icon-instagram" viewBox="0 0 1024 1024">
	<title>instagram</title>
	<path class="path1" d="M854 0h-684c-93.5 0-170 76.5-170 170v684c0 93.5 76.5 170 170 170h684c93.5 0 170-76.5 170-170v-684c0-93.5-76.5-170-170-170zM327.8 448h368.4c6.988 20.058 10.8 41.59 10.8 64 0 107.524-87.476 195-195 195s-195-87.476-195-195c0-22.41 3.812-43.942 10.8-64zM896 448.050v383.95c0 35.2-28.8 64-64 64h-640c-35.2 0-64-28.8-64-64v-384h100.108c-4.642 20.602-7.108 42.016-7.108 64 0 160.458 130.542 291 291 291s291-130.542 291-291c0-21.984-2.464-43.398-7.108-64l100.108 0.050zM896 224c0 17.6-14.4 32-32 32h-64c-17.6 0-32-14.4-32-32v-64c0-17.6 14.4-32 32-32h64c17.6 0 32 14.4 32 32v64z"></path>
</symbol>
<symbol id="icon-twitter" viewBox="0 0 1024 1024">
	<title>twitter</title>
	<path class="path1" d="M1024 194.418c-37.676 16.708-78.164 28.002-120.66 33.080 43.372-26 76.686-67.17 92.372-116.23-40.596 24.078-85.556 41.56-133.41 50.98-38.32-40.83-92.922-66.34-153.346-66.34-116.022 0-210.088 94.058-210.088 210.078 0 16.466 1.858 32.5 5.44 47.878-174.6-8.764-329.402-92.4-433.018-219.506-18.084 31.028-28.446 67.116-28.446 105.618 0 72.888 37.088 137.192 93.46 174.866-34.438-1.092-66.832-10.542-95.154-26.278-0.020 0.876-0.020 1.756-0.020 2.642 0 101.788 72.418 186.696 168.522 206-17.626 4.8-36.188 7.372-55.348 7.372-13.538 0-26.698-1.32-39.528-3.772 26.736 83.46 104.32 144.206 196.252 145.896-71.9 56.35-162.486 89.934-260.916 89.934-16.958 0-33.68-0.994-50.116-2.94 92.972 59.61 203.402 94.394 322.042 94.394 386.422 0 597.736-320.124 597.736-597.744 0-9.108-0.206-18.168-0.61-27.18 41.056-29.62 76.672-66.62 104.836-108.748z"></path>
</symbol>
<symbol id="icon-twitter2" viewBox="0 0 1024 1024">
	<title>twitter2</title>
	<path class="path1" d="M853.342 0h-682.656c-93.874 0-170.686 76.81-170.686 170.69v682.624c0 93.936 76.812 170.686 170.686 170.686h682.656c93.876 0 170.658-76.75 170.658-170.69v-682.62c0-93.88-76.782-170.69-170.658-170.69zM766.478 381.48c0.252 5.632 0.38 11.296 0.38 16.988 0 173.51-132.070 373.588-373.584 373.588-74.15 0-143.168-21.738-201.276-58.996 10.272 1.218 20.724 1.84 31.322 1.84 61.518 0 118.134-20.992 163.072-56.21-57.458-1.054-105.948-39.020-122.658-91.184 8.018 1.532 16.244 2.36 24.704 2.36 11.976 0 23.578-1.61 34.592-4.61-60.064-12.066-105.326-65.132-105.326-128.75 0-0.554 0-1.104 0.012-1.652 17.7 9.834 37.948 15.742 59.47 16.424-35.232-23.546-58.414-63.736-58.414-109.292 0-24.064 6.476-46.62 17.78-66.010 64.76 79.44 161.51 131.712 270.634 137.19-2.238-9.612-3.4-19.632-3.4-29.924 0-72.512 58.792-131.298 131.304-131.298 37.766 0 71.892 15.944 95.842 41.462 29.908-5.886 58.008-16.814 83.38-31.862-9.804 30.662-30.624 56.394-57.732 72.644 26.56-3.174 51.866-10.232 75.412-20.674-17.594 26.328-39.854 49.454-65.514 67.966z"></path>
</symbol>
<symbol id="icon-feed2" viewBox="0 0 1024 1024">
	<title>feed2</title>
	<path class="path1" d="M136.294 750.93c-75.196 0-136.292 61.334-136.292 136.076 0 75.154 61.1 135.802 136.292 135.802 75.466 0 136.494-60.648 136.494-135.802-0.002-74.742-61.024-136.076-136.494-136.076zM0.156 347.93v196.258c127.784 0 247.958 49.972 338.458 140.512 90.384 90.318 140.282 211.036 140.282 339.3h197.122c-0.002-372.82-303.282-676.070-675.862-676.070zM0.388 0v196.356c455.782 0 826.756 371.334 826.756 827.644h196.856c0-564.47-459.254-1024-1023.612-1024z"></path>
</symbol>
<symbol id="icon-youtube3" viewBox="0 0 1024 1024">
	<title>youtube3</title>
	<path class="path1" d="M293.188 0l-69.188 137.234-69.188-137.234h-88.248l124.71 217.314 0.726-0.43v167.116h64v-167.116l0.726 0.43 124.71-217.314z"></path>
	<path class="path2" d="M480 128c17.346 0 32 14.654 32 32v128c0 17.346-14.654 32-32 32s-32-14.654-32-32v-128c0-17.346 14.654-32 32-32zM480 64c-52.8 0-96 43.2-96 96v128c0 52.8 43.2 96 96 96s96-43.2 96-96v-128c0-52.8-43.2-96-96-96v0z"></path>
	<path class="path3" d="M768 64v251.968c-27.922 23.288-64 37.332-64-45.634v-206.334h-64v219.324h0.096c0.986 52.91 12.142 148.168 127.904 70.712v29.964h64v-320h-64z"></path>
	<path class="path4" d="M864 704c-17.644 0-32 14.356-32 32v32h64v-32c0-17.644-14.356-32-32-32z"></path>
	<path class="path5" d="M576 736v168c21.666 21.666 64 24 64-8s0-118 0-150-32-42-64-10z"></path>
	<path class="path6" d="M1018.766 581.54c-2.792-36.862-16.046-66.942-39.778-90.244-23.726-23.298-54.080-35.994-91.068-38.080-69.784-3.478-229.452-5.216-369.716-5.216-140.266 0-311.294 1.738-381.078 5.216-36.986 2.086-67.342 14.782-91.068 38.080-23.728 23.302-36.988 53.382-39.778 90.244-4.188 75.116-6.28 102.352-6.28 139.91 0 37.56 2.092 93.894 6.28 169.012 2.792 36.862 16.050 66.944 39.778 90.244 23.726 23.298 54.082 35.992 91.068 38.080 69.782 3.476 240.81 5.214 381.078 5.214 140.266 0 299.934-1.738 369.716-5.214 36.988-2.088 67.342-14.782 91.068-38.080 23.73-23.3 36.986-53.382 39.778-90.244 3.49-62.598 5.234-118.934 5.234-169.012 0-50.076-1.744-77.314-5.234-139.91zM192 960h-64v-320h-64v-64h192v64h-64v320zM448 960h-64v-29.962c-121.666 68.294-126.918 2.198-127.904-50.712h-0.096v-175.326h64v176.334c0 38.666 36.078 34.924 64 11.634v-187.968h64v256zM704 895.086c0 66.892-68.504 86.402-128 34.39v30.524h-64v-384h64v104c64-64 128-40 128 24s0 121.172 0 191.086zM960 768v32h-128v64c0 17.644 14.356 32 32 32s32-14.356 32-32v-32h64v32c0 52.934-43.066 96-96 96s-96-43.066-96-96v-128c0-52.934 43.066-96 96-96s96 43.066 96 96v32z"></path>
</symbol>
<symbol id="icon-vimeo" viewBox="0 0 1024 1024">
	<title>vimeo</title>
	<path class="path1" d="M0 308.37l41.594 54.544c0 0 85.77-67.608 114.36-33.802 28.588 33.802 137.736 441.956 174.17 517.246 31.8 66.030 119.518 153.32 215.714 90.982 96.136-62.34 415.84-335.286 473.066-657.616 57.18-322.226-384.72-254.726-431.53 26.010 116.99-70.236 179.436 28.538 119.57 140.372-59.758 111.724-114.36 184.592-142.952 184.592-28.538 0-50.49-74.768-83.188-205.446-33.798-135.102-33.592-378.46-174.116-350.87-132.518 26.012-306.688 233.988-306.688 233.988z"></path>
</symbol>
<symbol id="icon-flickr2" viewBox="0 0 1024 1024">
	<title>flickr2</title>
	<path class="path1" d="M800 416c-70.58 0-128 57.42-128 128s57.42 128 128 128c70.58 0 128-57.42 128-128s-57.42-128-128-128zM800 320v0c123.71 0 224 100.288 224 224 0 123.71-100.29 224-224 224s-224-100.29-224-224c0-123.712 100.29-224 224-224zM0 544c0-123.712 100.288-224 224-224s224 100.288 224 224c0 123.712-100.288 224-224 224s-224-100.288-224-224z"></path>
</symbol>
<symbol id="icon-github4" viewBox="0 0 1024 1024">
	<title>github4</title>
	<path class="path1" d="M512 0c-282.77 0-512 229.23-512 512s229.23 512 512 512 512-229.23 512-512-229.23-512-512-512zM816.056 816.056c-39.518 39.516-85.512 70.532-136.708 92.186-13.006 5.5-26.214 10.328-39.6 14.492v-76.734c0-40.334-13.834-70-41.5-89 17.334-1.666 33.25-4 47.75-7s29.834-7.334 46-13 30.666-12.416 43.5-20.25 25.166-18 37-30.5 21.75-26.666 29.75-42.5 14.334-34.834 19-57 7-46.584 7-73.25c0-51.666-16.834-95.666-50.5-132 15.334-40 13.666-83.5-5-130.5l-12.5-1.5c-8.666-1-24.25 2.666-46.75 11s-47.75 22-75.75 41c-39.666-11-80.834-16.5-123.5-16.5-43 0-84 5.5-123 16.5-17.666-12-34.416-21.916-50.25-29.75s-28.5-13.166-38-16-18.334-4.584-26.5-5.25-13.416-0.834-15.75-0.5-4 0.666-5 1c-18.666 47.334-20.334 90.834-5 130.5-33.666 36.334-50.5 80.334-50.5 132 0 26.666 2.334 51.084 7 73.25s11 41.166 19 57 17.916 30 29.75 42.5 24.166 22.666 37 30.5 27.334 14.584 43.5 20.25 31.5 10 46 13 30.416 5.334 47.75 7c-27.334 18.666-41 48.334-41 89v78.23c-15.098-4.494-29.98-9.804-44.6-15.988-51.194-21.654-97.188-52.67-136.706-92.186-39.516-39.518-70.534-85.512-92.186-136.708-22.398-52.958-33.756-109.262-33.756-167.348s11.358-114.39 33.758-167.35c21.654-51.194 52.67-97.188 92.186-136.706s85.512-70.534 136.706-92.186c52.96-22.4 109.264-33.758 167.35-33.758s114.39 11.358 167.35 33.758c51.196 21.654 97.19 52.67 136.708 92.186 39.516 39.516 70.532 85.512 92.186 136.706 22.398 52.96 33.756 109.264 33.756 167.35s-11.358 114.39-33.758 167.35c-21.654 51.194-52.67 97.19-92.186 136.706z"></path>
</symbol>
<symbol id="icon-linkedin2" viewBox="0 0 1024 1024">
	<title>linkedin2</title>
	<path class="path1" d="M384 384h177.106v90.782h2.532c24.64-44.194 84.958-90.782 174.842-90.782 186.946 0 221.52 116.376 221.52 267.734v308.266h-184.61v-273.278c0-65.184-1.334-149.026-96.028-149.026-96.148 0-110.82 70.986-110.82 144.292v278.012h-184.542v-576z"></path>
	<path class="path2" d="M64 384h192v576h-192v-576z"></path>
	<path class="path3" d="M256 224c0 53.019-42.981 96-96 96s-96-42.981-96-96c0-53.019 42.981-96 96-96s96 42.981 96 96z"></path>
</symbol>
<symbol id="icon-pinterest2" viewBox="0 0 1024 1024">
	<title>pinterest2</title>
	<path class="path1" d="M853.35 0h-682.704c-94.25 0-170.646 76.42-170.646 170.686v682.63c0 94.266 76.398 170.684 170.646 170.684h682.704c94.25 0 170.65-76.418 170.65-170.684v-682.63c0-94.266-76.4-170.686-170.65-170.686zM573.288 804.024c-51.886 0-100.652-26.958-117.35-58.796 0 0-25.674 97.766-31.896 121.71-11.562 44.468-42.766 100.218-63.64 134.226l-34.986-12.394c-4.478-40.508-8.518-102.644 1.774-146.876 9.298-39.954 60.040-254.5 60.040-254.5s-15.32-30.664-15.32-76.008c0-71.19 41.268-124.336 92.64-124.336 43.684 0 64.786 32.794 64.786 72.12 0 43.928-27.964 109.604-42.404 170.464-12.060 50.972 25.556 92.536 75.814 92.536 91.008 0 160.958-95.96 160.958-234.466 0-122.584-88.088-208.298-213.87-208.298-145.676 0-231.186 109.274-231.186 222.19 0 44.008 16.95 91.196 38.102 116.844 4.182 5.070 4.792 9.516 3.548 14.68-3.884 16.18-12.522 50.96-14.216 58.076-2.234 9.368-7.422 11.356-17.124 6.842-63.95-29.77-103.926-123.264-103.926-198.348 0-161.51 117.348-309.834 338.294-309.834 177.61 0 315.634 126.56 315.634 295.704 0.004 176.456-111.252 318.464-265.672 318.464z"></path>
</symbol>
<symbol id="icon-codepen" viewBox="0 0 1024 1024">
	<title>codepen</title>
	<path class="path1" d="M945.75 368.042l-448-298.666c-10.748-7.166-24.752-7.166-35.5 0l-448 298.666c-8.902 5.934-14.25 15.926-14.25 26.624v298.666c0 10.7 5.348 20.692 14.25 26.624l448 298.666c5.374 3.584 11.562 5.376 17.75 5.376s12.376-1.792 17.75-5.376l448-298.666c8.902-5.934 14.25-15.926 14.25-26.624v-298.666c0-10.698-5.348-20.69-14.25-26.624zM480 654.876l-166.312-110.876 166.312-110.874 166.312 110.874-166.312 110.876zM512 377.542v-221.75l358.31 238.876-166.31 110.874-192-128zM448 377.542l-192 128-166.312-110.874 358.312-238.876v221.75zM198.312 544l-134.312 89.542v-179.082l134.312 89.54zM256 582.458l192 128v221.748l-358.312-238.872 166.312-110.876zM512 710.458l192-128 166.312 110.876-358.312 238.874v-221.75zM761.688 544l134.312-89.54v179.084l-134.312-89.544z"></path>
</symbol>
</defs>
</svg>
