<svg display="none" width="0" height="0" version="1.1" xmlns="http://www.w3.org/2000/svg" xmlns:xlink="http://www.w3.org/1999/xlink">
<defs>
<symbol id="atw" viewBox="0 0 122 37" preserveAspectRatio="xMinYMax meet">
<title>logo athousandwords.nl</title>
<g>
	<path d="M24.441,34.188v2.821h-2.982h-0.654h-2.01c-0.56,0-1-0.084-1.32-0.252c-0.32-0.168-0.561-0.508-0.72-1.02l-0.528-1.752
		c-0.624,0.56-1.236,1.052-1.836,1.476c-0.598,0.423-1.218,0.779-1.86,1.068c-0.641,0.288-1.321,0.504-2.04,0.647
		c-0.721,0.145-1.521,0.217-2.4,0.217c-1.039,0-2-0.141-2.88-0.421c-0.88-0.281-1.636-0.703-2.268-1.265
		c-0.632-0.562-1.125-1.261-1.477-2.096s-0.528-1.806-0.528-2.914c0-0.931,0.244-1.851,0.732-2.758
		c0.488-0.906,1.3-1.725,2.437-2.456c1.136-0.73,2.647-1.336,4.536-1.818c1.888-0.482,4.232-0.723,7.032-0.723v-1.451
		c0-1.661-0.348-2.89-1.044-3.688c-0.696-0.798-1.708-1.197-3.036-1.197c-0.96,0-1.76,0.112-2.4,0.336
		c-0.641,0.225-1.197,0.477-1.668,0.756c-0.468,0.278-0.904,0.53-1.308,0.756c-0.4,0.224-0.84,0.336-1.32,0.335
		c-0.4,0-0.744-0.104-1.032-0.312s-0.521-0.464-0.696-0.768l-1.081-1.896c2.832-2.592,6.249-3.889,10.249-3.889
		c1.439,0,2.723,0.236,3.852,0.708c1.128,0.472,2.084,1.128,2.868,1.968c0.785,0.841,1.381,1.845,1.788,3.013
		c0.408,1.167,0.612,2.448,0.612,3.84v10.91c0.547,0.097,0.969,0.172,1.265,0.227c0.296,0.054,0.468,0.085,0.517,0.093
		C24.041,32.858,24.441,33.359,24.441,34.188z M15.674,26.569c-1.729,0-3.173,0.108-4.332,0.326
		c-1.16,0.218-2.092,0.495-2.796,0.834c-0.705,0.339-1.205,0.733-1.5,1.185s-0.444,0.942-0.444,1.474
		c0,1.049,0.308,1.798,0.924,2.249c0.615,0.451,1.419,0.677,2.412,0.677c0.608,0,1.168-0.055,1.681-0.165s0.996-0.276,1.452-0.497
		c0.456-0.22,0.896-0.491,1.32-0.814c0.424-0.322,0.852-0.705,1.284-1.146L15.674,26.569z"/>
	<path d="M26.947,35.38c-1.152-1.209-1.728-2.877-1.728-5.005V16.623h-2.496c-0.32,0-0.596-0.104-0.828-0.312
		c-0.232-0.208-0.348-0.52-0.348-0.936v-2.352l3.96-0.648l1.248-6.721c0.064-0.32,0.212-0.568,0.444-0.744
		c0.232-0.176,0.524-0.264,0.876-0.264h3.072v7.752h6.481L41.917,17l-10.77-0.377v13.345c0,0.769,0.192,1.368,0.576,1.801
		c0.384,0.432,0.896,0.647,1.536,0.647c0.368,0,0.676-0.044,0.924-0.132s0.464-0.18,0.648-0.276
		c0.184-0.096,0.348-0.188,0.492-0.275s0.288-0.132,0.432-0.132c0.176,0,0.32,0.044,0.432,0.132c0.112,0.088,0.232,0.22,0.36,0.396
		l1.776,2.881c-0.864,0.72-1.856,1.264-2.976,1.632s-2.28,0.552-3.48,0.552C29.739,37.192,28.099,36.588,26.947,35.38z"/>
	<path d="M74.459,12.434v2.822c0,0.829-0.4,1.33-1.201,1.501c-0.369,0.065-0.228,0.045-2.271,0.406l-6.302,19.896h-4.776
		c-0.512,0-0.88-0.352-1.104-1.056l-4.44-14.233c-0.144-0.464-0.276-0.932-0.396-1.404c-0.12-0.472-0.22-0.94-0.3-1.404
		c-0.096,0.48-0.2,0.957-0.312,1.428c-0.113,0.472-0.24,0.948-0.385,1.428l-4.488,14.185c-0.225,0.704-0.657,1.056-1.296,1.056
		h-4.537l-6.302-19.896c-2.04-0.36-1.899-0.34-2.268-0.406c-0.801-0.171-1.201-0.672-1.201-1.501l-5.171-2.797l7.142-0.024v0h4.704
		c0.003,0,0.006,0,0.01,0h5.31v2.822c0,0.829-0.4,1.33-1.201,1.501c-0.299,0.053-0.37,0.069-1.479,0.266l2.593,9.667
		c0.192,0.72,0.348,1.424,0.468,2.112c0.12,0.688,0.236,1.376,0.348,2.063c0.176-0.688,0.364-1.376,0.564-2.063
		c0.2-0.688,0.412-1.393,0.636-2.112l4.081-13.201c0.096-0.32,0.288-0.584,0.576-0.792s0.624-0.312,1.008-0.312h2.616
		c0.433,0,0.792,0.104,1.081,0.312c0.288,0.208,0.479,0.472,0.576,0.792l4.032,13.441c0.208,0.688,0.396,1.355,0.564,2.004
		c0.168,0.647,0.332,1.3,0.492,1.956c0.112-0.688,0.236-1.376,0.372-2.064c0.136-0.688,0.308-1.399,0.517-2.136l2.669-9.625
		c-1.339-0.237-1.4-0.252-1.72-0.309c-0.801-0.171-1.201-0.672-1.201-1.501v-2.822h5.523c0.003,0,0.005,0,0.009,0h4.488v0H74.459z"
		/>
</g>
<path fill="none" d="M24.441,36.134"/>
<path fill="none" stroke="#000000" d="M30.208,35.625"/>
<path fill="none" stroke="#000000" d="M24.021,35.625"/>
<g>
	<path d="M69.61,32.132c0.184-0.448,0.44-0.833,0.769-1.152c0.328-0.32,0.716-0.576,1.164-0.768c0.448-0.192,0.928-0.288,1.44-0.288
		c0.496,0,0.968,0.096,1.416,0.288c0.448,0.192,0.832,0.448,1.152,0.768c0.32,0.32,0.576,0.704,0.768,1.152
		c0.192,0.448,0.288,0.92,0.288,1.417c0,0.512-0.096,0.988-0.288,1.428c-0.192,0.44-0.448,0.82-0.768,1.14
		c-0.32,0.32-0.704,0.572-1.152,0.756c-0.448,0.184-0.92,0.276-1.416,0.276c-0.512,0-0.992-0.092-1.44-0.276
		c-0.448-0.184-0.836-0.436-1.164-0.756c-0.328-0.32-0.584-0.7-0.768-1.14c-0.184-0.44-0.276-0.917-0.276-1.428
		C69.334,33.052,69.427,32.58,69.61,32.132z"/>
	<path d="M107.909,34.178V37h-3.637h-5.928V21.327c0-1.504-0.348-2.668-1.044-3.492c-0.696-0.824-1.74-1.236-3.132-1.236
		c-1.024,0-1.984,0.232-2.88,0.696c-0.896,0.464-1.744,1.096-2.544,1.896v13.052c0.599,0.105,1.07,0.189,1.415,0.251
		s0.583,0.104,0.715,0.129s0.232,0.042,0.301,0.055c0.801,0.171,1.201,0.672,1.201,1.501V37h-3.631h-5.929h-3.636v-2.822
		c0-0.829,0.4-1.33,1.201-1.501c0.07-0.013,0.171-0.031,0.301-0.055c0.131-0.024,0.369-0.067,0.715-0.129
		c0.346-0.062,0.819-0.146,1.418-0.252V17.133c-0.6-0.105-1.073-0.189-1.418-0.251c-0.346-0.062-0.584-0.105-0.715-0.129
		c-0.13-0.024-0.231-0.042-0.301-0.055c-0.801-0.171-1.201-0.672-1.201-1.501v-2.821h3.636l3.624,0c0.768,0,1.272,0.36,1.512,1.08
		l0.408,1.944c0.496-0.512,1.021-0.976,1.572-1.392c0.552-0.416,1.136-0.776,1.752-1.081s1.276-0.536,1.98-0.696
		c0.706-0.161,1.474-0.24,2.304-0.24c1.343,0,2.536,0.228,3.576,0.685c1.04,0.455,1.908,1.095,2.604,1.92
		c0.696,0.824,1.224,1.808,1.584,2.952c0.36,1.144,0.54,2.404,0.54,3.78l0,10.915c0.6,0.106,1.072,0.19,1.418,0.252
		s0.585,0.105,0.715,0.129s0.231,0.042,0.301,0.055C107.509,32.849,107.909,33.349,107.909,34.178z"/>
	<path d="M120.908,34.177v2.822h-3.636h-5.928h-3.636v-2.822c0-0.829,0.4-1.33,1.201-1.501c0.07-0.012,0.17-0.031,0.301-0.055
		s0.37-0.067,0.715-0.129s0.819-0.146,1.418-0.252V6.091c-0.6-0.106-1.073-0.19-1.418-0.252c-0.346-0.062-0.584-0.105-0.715-0.129
		c-0.13-0.024-0.231-0.042-0.301-0.055c-0.801-0.171-1.202-0.672-1.201-1.501V1.333h3.637h5.928v30.908
		c0.6,0.105,1.072,0.189,1.418,0.251s0.585,0.105,0.716,0.129c0.13,0.024,0.231,0.042,0.301,0.054
		C120.508,32.848,120.908,33.348,120.908,34.177z"/>
</g>
</symbol>
  <symbol id="icon-envelop" viewBox="0 0 1024 1024">
	<title>envelop</title>
	<path class="path1" d="M950.857 859.429v-438.857q-18.286 20.571-39.429 37.714-153.143 117.714-243.429 193.143-29.143 24.571-47.429 38.286t-49.429 27.714-58.571 14h-1.143q-27.429 0-58.571-14t-49.429-27.714-47.429-38.286q-90.286-75.429-243.429-193.143-21.143-17.143-39.429-37.714v438.857q0 7.429 5.429 12.857t12.857 5.429h841.143q7.429 0 12.857-5.429t5.429-12.857zM950.857 258.857v-14t-0.286-7.429-1.714-7.143-3.143-5.143-5.143-4.286-8-1.429h-841.143q-7.429 0-12.857 5.429t-5.429 12.857q0 96 84 162.286 110.286 86.857 229.143 181.143 3.429 2.857 20 16.857t26.286 21.429 25.429 18 28.857 15.714 24.571 5.143h1.143q11.429 0 24.571-5.143t28.857-15.714 25.429-18 26.286-21.429 20-16.857q118.857-94.286 229.143-181.143 30.857-24.571 57.429-66t26.571-75.143zM1024 237.714v621.714q0 37.714-26.857 64.571t-64.571 26.857h-841.143q-37.714 0-64.571-26.857t-26.857-64.571v-621.714q0-37.714 26.857-64.571t64.571-26.857h841.143q37.714 0 64.571 26.857t26.857 64.571z"></path>
</symbol>
<symbol id="icon-heart" viewBox="0 0 1024 1024">
	<title>heart</title>
	<path class="path1" d="M512 950.857q-14.857 0-25.143-10.286l-356.571-344q-5.714-4.571-15.714-14.857t-31.714-37.429-38.857-55.714-30.571-69.143-13.429-78.857q0-125.714 72.571-196.571t200.571-70.857q35.429 0 72.286 12.286t68.571 33.143 54.571 39.143 43.429 38.857q20.571-20.571 43.429-38.857t54.571-39.143 68.571-33.143 72.286-12.286q128 0 200.571 70.857t72.571 196.571q0 126.286-130.857 257.143l-356 342.857q-10.286 10.286-25.143 10.286z"></path>
</symbol>
<symbol id="icon-movie" viewBox="0 0 1097 1024">
	<title>movie</title>
	<path class="path1" d="M219.429 914.286v-73.143q0-14.857-10.857-25.714t-25.714-10.857h-73.143q-14.857 0-25.714 10.857t-10.857 25.714v73.143q0 14.857 10.857 25.714t25.714 10.857h73.143q14.857 0 25.714-10.857t10.857-25.714zM219.429 694.857v-73.143q0-14.857-10.857-25.714t-25.714-10.857h-73.143q-14.857 0-25.714 10.857t-10.857 25.714v73.143q0 14.857 10.857 25.714t25.714 10.857h73.143q14.857 0 25.714-10.857t10.857-25.714zM219.429 475.429v-73.143q0-14.857-10.857-25.714t-25.714-10.857h-73.143q-14.857 0-25.714 10.857t-10.857 25.714v73.143q0 14.857 10.857 25.714t25.714 10.857h73.143q14.857 0 25.714-10.857t10.857-25.714zM804.571 914.286v-292.571q0-14.857-10.857-25.714t-25.714-10.857h-438.857q-14.857 0-25.714 10.857t-10.857 25.714v292.571q0 14.857 10.857 25.714t25.714 10.857h438.857q14.857 0 25.714-10.857t10.857-25.714zM219.429 256v-73.143q0-14.857-10.857-25.714t-25.714-10.857h-73.143q-14.857 0-25.714 10.857t-10.857 25.714v73.143q0 14.857 10.857 25.714t25.714 10.857h73.143q14.857 0 25.714-10.857t10.857-25.714zM1024 914.286v-73.143q0-14.857-10.857-25.714t-25.714-10.857h-73.143q-14.857 0-25.714 10.857t-10.857 25.714v73.143q0 14.857 10.857 25.714t25.714 10.857h73.143q14.857 0 25.714-10.857t10.857-25.714zM804.571 475.429v-292.571q0-14.857-10.857-25.714t-25.714-10.857h-438.857q-14.857 0-25.714 10.857t-10.857 25.714v292.571q0 14.857 10.857 25.714t25.714 10.857h438.857q14.857 0 25.714-10.857t10.857-25.714zM1024 694.857v-73.143q0-14.857-10.857-25.714t-25.714-10.857h-73.143q-14.857 0-25.714 10.857t-10.857 25.714v73.143q0 14.857 10.857 25.714t25.714 10.857h73.143q14.857 0 25.714-10.857t10.857-25.714zM1024 475.429v-73.143q0-14.857-10.857-25.714t-25.714-10.857h-73.143q-14.857 0-25.714 10.857t-10.857 25.714v73.143q0 14.857 10.857 25.714t25.714 10.857h73.143q14.857 0 25.714-10.857t10.857-25.714zM1024 256v-73.143q0-14.857-10.857-25.714t-25.714-10.857h-73.143q-14.857 0-25.714 10.857t-10.857 25.714v73.143q0 14.857 10.857 25.714t25.714 10.857h73.143q14.857 0 25.714-10.857t10.857-25.714zM1097.143 164.571v768q0 37.714-26.857 64.571t-64.571 26.857h-914.286q-37.714 0-64.571-26.857t-26.857-64.571v-768q0-37.714 26.857-64.571t64.571-26.857h914.286q37.714 0 64.571 26.857t26.857 64.571z"></path>
</symbol>
<symbol id="icon-road" viewBox="0 0 1097 1024">
	<title>road</title>
	<path class="path1" d="M634.857 569.143v-2.286l-13.714-182.857q-0.571-7.429-6.286-12.857t-13.143-5.429h-106.286q-7.429 0-13.143 5.429t-6.286 12.857l-13.714 182.857v2.286q-0.571 6.857 4.571 11.429t12 4.571h139.429q6.857 0 12-4.571t4.571-11.429zM1068.571 836q0 41.714-26.286 41.714h-402.286q7.429 0 12.571-5.429t4.571-12.857l-11.429-146.286q-0.571-7.429-6.286-12.857t-13.143-5.429h-155.429q-7.429 0-13.143 5.429t-6.286 12.857l-11.429 146.286q-0.571 7.429 4.571 12.857t12.571 5.429h-402.286q-26.286 0-26.286-41.714 0-30.857 14.857-66.286l238.286-596.571q4.571-10.857 14.857-18.857t21.714-8h193.714q-7.429 0-13.143 5.429t-6.286 12.857l-8.571 109.714q-0.571 8 4.571 13.143t12.571 5.143h94.857q7.429 0 12.571-5.143t4.571-13.143l-8.571-109.714q-0.571-7.429-6.286-12.857t-13.143-5.429h193.714q11.429 0 21.714 8t14.857 18.857l238.286 596.571q14.857 35.429 14.857 66.286z"></path>
</symbol>
<symbol id="icon-location" viewBox="0 0 585 1024">
	<title>location</title>
	<path class="path1" d="M438.857 365.714q0-60.571-42.857-103.429t-103.429-42.857-103.429 42.857-42.857 103.429 42.857 103.429 103.429 42.857 103.429-42.857 42.857-103.429zM585.143 365.714q0 62.286-18.857 102.286l-208 442.286q-9.143 18.857-27.143 29.714t-38.571 10.857-38.571-10.857-26.571-29.714l-208.571-442.286q-18.857-40-18.857-102.286 0-121.143 85.714-206.857t206.857-85.714 206.857 85.714 85.714 206.857z"></path>
</symbol>
<symbol id="icon-arrow-left" viewBox="0 0 1024 1024">
	<title>arrow left</title>
	<path class="path1" d="M877.714 512v73.143q0 30.286-18.571 51.714t-48.286 21.429h-402.286l167.429 168q21.714 20.571 21.714 51.429t-21.714 51.429l-42.857 43.429q-21.143 21.143-51.429 21.143-29.714 0-52-21.143l-372-372.571q-21.143-21.143-21.143-51.429 0-29.714 21.143-52l372-371.429q21.714-21.714 52-21.714 29.714 0 51.429 21.714l42.857 42.286q21.714 21.714 21.714 52t-21.714 52l-167.429 167.429h402.286q29.714 0 48.286 21.429t18.571 51.714z"></path>
</symbol>
<symbol id="icon-arrow-right" viewBox="0 0 1024 1024">
	<title>arrow right</title>
	<path class="path1" d="M841.143 548.571q0 30.857-21.143 52l-372 372q-22.286 21.143-52 21.143-29.143 0-51.429-21.143l-42.857-42.857q-21.714-21.714-21.714-52t21.714-52l167.429-167.429h-402.286q-29.714 0-48.286-21.429t-18.571-51.714v-73.143q0-30.286 18.571-51.714t48.286-21.429h402.286l-167.429-168q-21.714-20.571-21.714-51.429t21.714-51.429l42.857-42.857q21.714-21.714 51.429-21.714 30.286 0 52 21.714l372 372q21.143 20 21.143 51.429z"></path>
</symbol>
<symbol id="icon-heart2" viewBox="0 0 1024 1024">
	<title>heart</title>
	<path class="path1" d="M950.857 340.571q0-46.286-12.286-81.714t-31.429-56.286-46.571-34-53.714-17.714-56-4.571-64 14.571-63.143 36.571-49.429 41.143-34.286 35.143q-10.286 12.571-28 12.571t-28-12.571q-13.714-16-34.286-35.143t-49.429-41.143-63.143-36.571-64-14.571-56 4.571-53.714 17.714-46.571 34-31.429 56.286-12.286 81.714q0 96 106.857 202.857l332 320 331.429-319.429q107.429-107.429 107.429-203.429zM1024 340.571q0 126.286-130.857 257.143l-356 342.857q-10.286 10.286-25.143 10.286t-25.143-10.286l-356.571-344q-5.714-4.571-15.714-14.857t-31.714-37.429-38.857-55.714-30.571-69.143-13.429-78.857q0-125.714 72.571-196.571t200.571-70.857q35.429 0 72.286 12.286t68.571 33.143 54.571 39.143 43.429 38.857q20.571-20.571 43.429-38.857t54.571-39.143 68.571-33.143 72.286-12.286q128 0 200.571 70.857t72.571 196.571z"></path>
</symbol>
<symbol id="icon-sports" viewBox="0 0 731 1024">
	<title>sports</title>
	<path class="path1" d="M678.857 313.143l-166.857 166.857v470.857q0 26.286-18.857 45.143t-45.143 18.857-45.143-18.857-18.857-45.143v-219.429h-36.571v219.429q0 26.286-18.857 45.143t-45.143 18.857-45.143-18.857-18.857-45.143v-470.857l-166.857-166.857q-16-16-16-38.857t16-38.857 38.857-16 38.857 16l130.286 130.286h210.286l130.286-130.286q16-16 38.857-16t38.857 16 16 38.857-16 38.857zM493.714 219.429q0 53.143-37.429 90.571t-90.571 37.429-90.571-37.429-37.429-90.571 37.429-90.571 90.571-37.429 90.571 37.429 37.429 90.571z"></path>
</symbol>
<symbol id="icon-heartbeat" viewBox="0 0 1024 1024">
	<title>heartbeat</title>
	<path class="path1" d="M731.429 585.143h174.286q-2.857 3.429-5.714 6t-5.143 4.286l-1.714 2.286-356 342.857q-10.286 10.286-25.143 10.286t-25.143-10.286l-356.571-344q-2.857-1.143-12-11.429h210.857q12.571 0 22.571-7.714t12.857-19.714l40-160.571 108.571 381.143q3.429 11.429 13.143 18.857t22.286 7.429q12 0 21.714-7.429t13.143-18.857l83.429-277.143 32 64q10.286 20 32.571 20zM1024 340.571q0 82.857-58.857 171.429h-210.857l-63.429-126.286q-4.571-9.714-14.571-15.429t-20.857-4.571q-25.714 2.857-32 26.286l-73.714 245.714-112-392q-3.429-11.429-13.429-18.857t-22.571-7.429-22.286 7.714-12.571 19.714l-66.286 265.143h-241.714q-58.857-88.571-58.857-171.429 0-125.714 72.571-196.571t200.571-70.857q35.429 0 72.286 12.286t68.571 33.143 54.571 39.143 43.429 38.857q20.571-20.571 43.429-38.857t54.571-39.143 68.571-33.143 72.286-12.286q128 0 200.571 70.857t72.571 196.571z"></path>
</symbol>
<symbol id="icon-pencil2" viewBox="0 0 1024 1024">
	<title>pencil2</title>
	<path class="path1" d="M384 640l128-64 448-448-64-64-448 448-64 128zM289.3 867.098c-31.632-66.728-65.666-100.762-132.396-132.394l99.096-272.792 128-77.912 384-384h-192l-384 384-192 640 640-192 384-384v-192l-384 384-77.912 128z"></path>
</symbol>
<symbol id="icon-image" viewBox="0 0 1024 1024">
	<title>image</title>
	<path class="path1" d="M959.884 128c0.040 0.034 0.082 0.076 0.116 0.116v767.77c-0.034 0.040-0.076 0.082-0.116 0.116h-895.77c-0.040-0.034-0.082-0.076-0.114-0.116v-767.772c0.034-0.040 0.076-0.082 0.114-0.114h895.77zM960 64h-896c-35.2 0-64 28.8-64 64v768c0 35.2 28.8 64 64 64h896c35.2 0 64-28.8 64-64v-768c0-35.2-28.8-64-64-64v0z"></path>
	<path class="path2" d="M832 288c0 53.020-42.98 96-96 96s-96-42.98-96-96 42.98-96 96-96 96 42.98 96 96z"></path>
	<path class="path3" d="M896 832h-768v-128l224-384 256 320h64l224-192z"></path>
</symbol>
<symbol id="icon-tag" viewBox="0 0 1024 1024">
	<title>price-tag</title>
	<path class="path1" d="M976 0h-384c-26.4 0-63.274 15.274-81.942 33.942l-476.116 476.116c-18.668 18.668-18.668 49.214 0 67.882l412.118 412.118c18.668 18.668 49.214 18.668 67.882 0l476.118-476.118c18.666-18.666 33.94-55.54 33.94-81.94v-384c0-26.4-21.6-48-48-48zM736 384c-53.020 0-96-42.98-96-96s42.98-96 96-96 96 42.98 96 96-42.98 96-96 96z"></path>
</symbol>
<symbol id="icon-clock" viewBox="0 0 1024 1024">
	<title>clock</title>
	<path class="path1" d="M658.744 749.256l-210.744-210.746v-282.51h128v229.49l173.256 173.254zM512 0c-282.77 0-512 229.23-512 512s229.23 512 512 512 512-229.23 512-512-229.23-512-512-512zM512 896c-212.078 0-384-171.922-384-384s171.922-384 384-384c212.078 0 384 171.922 384 384s-171.922 384-384 384z"></path>
</symbol>
<symbol id="icon-stopwatch" viewBox="0 0 1024 1024">
	<title>stopwatch</title>
	<path class="path1" d="M512.002 193.212v-65.212h128v-64c0-35.346-28.654-64-64.002-64h-191.998c-35.346 0-64 28.654-64 64v64h128v65.212c-214.798 16.338-384 195.802-384 414.788 0 229.75 186.25 416 416 416s416-186.25 416-416c0-218.984-169.202-398.448-384-414.788zM706.276 834.274c-60.442 60.44-140.798 93.726-226.274 93.726s-165.834-33.286-226.274-93.726c-60.44-60.44-93.726-140.8-93.726-226.274s33.286-165.834 93.726-226.274c58.040-58.038 134.448-91.018 216.114-93.548l-21.678 314.020c-1.86 26.29 12.464 37.802 31.836 37.802s33.698-11.512 31.836-37.802l-21.676-314.022c81.666 2.532 158.076 35.512 216.116 93.55 60.44 60.44 93.726 140.8 93.726 226.274s-33.286 165.834-93.726 226.274z"></path>
</symbol>
<symbol id="icon-calendar" viewBox="0 0 1024 1024">
	<title>calendar</title>
	<path class="path1" d="M320 384h128v128h-128zM512 384h128v128h-128zM704 384h128v128h-128zM128 768h128v128h-128zM320 768h128v128h-128zM512 768h128v128h-128zM320 576h128v128h-128zM512 576h128v128h-128zM704 576h128v128h-128zM128 576h128v128h-128zM832 0v64h-128v-64h-448v64h-128v-64h-128v1024h960v-1024h-128zM896 960h-832v-704h832v704z"></path>
</symbol>
<symbol id="icon-bubbles3" viewBox="0 0 1152 1024">
	<title>bubbles3</title>
	<path class="path1" d="M1088 901.166c0 45.5 26.028 84.908 64 104.184v15.938c-10.626 1.454-21.472 2.224-32.5 2.224-68.008 0-129.348-28.528-172.722-74.264-26.222 6.982-54.002 10.752-82.778 10.752-159.058 0-288-114.616-288-256s128.942-256 288-256c159.058 0 288 114.616 288 256 0 55.348-19.764 106.592-53.356 148.466-6.824 14.824-10.644 31.312-10.644 48.7zM230.678 221.186c-66.214 53.798-102.678 122.984-102.678 194.814 0 40.298 11.188 79.378 33.252 116.15 22.752 37.92 56.982 72.586 98.988 100.252 30.356 19.992 50.78 51.948 56.176 87.894 1.8 11.984 2.928 24.088 3.37 36.124 7.47-6.194 14.75-12.846 21.88-19.976 24.154-24.152 56.78-37.49 90.502-37.49 5.368 0 10.762 0.336 16.156 1.024 20.948 2.662 42.344 4.016 63.594 4.020v128c-27.128-0.002-53.754-1.738-79.742-5.042-109.978 109.978-241.25 129.7-368.176 132.596v-26.916c68.536-33.578 128-94.74 128-164.636 0-9.754-0.758-19.33-2.164-28.696-115.796-76.264-189.836-192.754-189.836-323.304 0-229.75 229.23-416 512-416 278.458 0 504.992 180.614 511.836 405.52-41.096-18.316-85.84-29.422-132.262-32.578-11.53-56.068-45.402-108.816-98.252-151.756-35.322-28.698-76.916-51.39-123.628-67.444-49.706-17.080-102.76-25.742-157.694-25.742-54.932 0-107.988 8.662-157.694 25.742-46.712 16.054-88.306 38.744-123.628 67.444z"></path>
</symbol>
<symbol id="icon-embed2" viewBox="0 0 1280 1024">
	<title>embed2</title>
	<path class="path1" d="M832 736l96 96 320-320-320-320-96 96 224 224z"></path>
	<path class="path2" d="M448 288l-96-96-320 320 320 320 96-96-224-224z"></path>
	<path class="path3" d="M701.298 150.519l69.468 18.944-191.987 704.026-69.468-18.944 191.987-704.026z"></path>
</symbol>
<symbol id="icon-google-plus" viewBox="0 0 1024 1024">
	<title>google-plus</title>
	<path class="path1" d="M559.066 64c0 0-200.956 0-267.94 0-120.12 0-233.17 91.006-233.17 196.422 0 107.726 81.882 194.666 204.088 194.666 8.498 0 16.756-0.17 24.842-0.752-7.93 15.186-13.602 32.288-13.602 50.042 0 29.938 16.104 54.21 36.468 74.024-15.386 0-30.242 0.448-46.452 0.448-148.782-0.002-263.3 94.758-263.3 193.020 0 96.778 125.542 157.314 274.334 157.314 169.624 0 263.306-96.244 263.306-193.028 0-77.6-22.896-124.072-93.686-174.134-24.216-17.144-70.53-58.836-70.53-83.344 0-28.72 8.196-42.868 51.428-76.646 44.312-34.624 75.672-83.302 75.672-139.916 0-67.406-30.020-133.098-86.372-154.772h84.954l59.96-43.344zM465.48 719.458c2.126 8.972 3.284 18.206 3.284 27.628 0 78.2-50.392 139.31-194.974 139.31-102.842 0-177.116-65.104-177.116-143.3 0-76.642 92.126-140.444 194.964-139.332 24 0.254 46.368 4.116 66.67 10.69 55.826 38.826 95.876 60.762 107.172 105.004zM300.818 427.776c-69.038-2.064-134.636-77.226-146.552-167.86-11.916-90.666 34.37-160.042 103.388-157.99 69.010 2.074 134.638 74.814 146.558 165.458 11.906 90.66-34.39 162.458-103.394 160.392zM832 256v-192h-64v192h-192v64h192v192h64v-192h192v-64z"></path>
</symbol>
<symbol id="icon-google-plus2" viewBox="0 0 1024 1024">
	<title>google-plus2</title>
	<path class="path1" d="M0.806 869.664c-0.244-2.532-0.452-5.070-0.584-7.63 0.13 2.56 0.34 5.098 0.584 7.63zM235.908 565.148c92.010 2.738 153.734-92.698 137.862-213.198-15.894-120.48-103.396-217.168-195.408-219.922-92.026-2.73-153.74 89.482-137.852 210 15.882 120.468 103.352 220.374 195.398 223.12zM1024 256v-85.31c0-93.88-76.782-170.69-170.658-170.69h-682.656c-92.276 0-168.012 74.232-170.564 165.926 58.362-51.386 139.324-94.316 222.874-94.316 89.304 0 357.244 0 357.244 0l-79.948 67.618h-113.268c75.13 28.804 115.156 116.124 115.156 205.722 0 75.248-41.81 139.954-100.888 185.968-57.644 44.902-68.572 63.708-68.572 101.878 0 32.578 61.746 88 94.032 110.788 94.382 66.538 124.916 128.312 124.916 231.456 0 16.428-2.042 32.83-6.066 48.96h307.742c93.874 0 170.656-76.75 170.656-170.69v-533.308h-192v191.998h-64v-192h-191.998v-64h191.998v-192h64v192h192zM185.886 765.936c21.614 0 41.422-0.59 61.936-0.59-27.146-26.334-48.626-58.6-48.626-98.38 0-23.608 7.564-46.336 18.134-66.52-10.782 0.77-21.79 0.994-33.126 0.994-74.356 0-137.506-24.076-184.204-63.854v67.242l0.006 201.73c53.44-25.374 116.888-40.622 185.88-40.622zM3.42 887.258c-1.112-5.458-1.966-11.006-2.542-16.634 0.574 5.628 1.43 11.176 2.542 16.634zM455.45 952.846c-15.058-58.806-68.454-87.964-142.888-139.568-27.072-8.732-56.894-13.874-88.894-14.208-89.618-0.964-173.108 34.942-220.216 88.372 15.92 77.706 85.034 136.558 167.234 136.558h286.444c1.816-11.128 2.696-22.632 2.696-34.432 0-12.534-1.534-24.792-4.376-36.722z"></path>
</symbol>
<symbol id="icon-facebook" viewBox="0 0 1024 1024">
	<title>facebook</title>
	<path class="path1" d="M672 192c-88.366 0-160 71.634-160 160v96h-128v128h128v448h128v-448h144l32-128h-176v-96c0-17.672 14.326-32 32-32h160v-128h-160z"></path>
</symbol>
<symbol id="icon-facebook2" viewBox="0 0 1024 1024">
	<title>facebook2</title>
	<path class="path1" d="M853.35 0h-682.702c-94.25 0-170.648 76.42-170.648 170.686v682.63c0 94.266 76.398 170.684 170.648 170.684h341.352v-448h-128v-128h128v-96c0-88.366 71.634-160 160-160h160v128h-160c-17.674 0-32 14.328-32 32v96h176l-32 128h-144v448h213.35c94.25 0 170.65-76.418 170.65-170.684v-682.63c0-94.266-76.4-170.686-170.65-170.686z"></path>
</symbol>
<symbol id="icon-instagram" viewBox="0 0 1024 1024">
	<title>instagram</title>
	<path class="path1" d="M854 0h-684c-93.5 0-170 76.5-170 170v684c0 93.5 76.5 170 170 170h684c93.5 0 170-76.5 170-170v-684c0-93.5-76.5-170-170-170zM327.8 448h368.4c6.988 20.058 10.8 41.59 10.8 64 0 107.524-87.476 195-195 195s-195-87.476-195-195c0-22.41 3.812-43.942 10.8-64zM896 448.050v383.95c0 35.2-28.8 64-64 64h-640c-35.2 0-64-28.8-64-64v-384h100.108c-4.642 20.602-7.108 42.016-7.108 64 0 160.458 130.542 291 291 291s291-130.542 291-291c0-21.984-2.464-43.398-7.108-64l100.108 0.050zM896 224c0 17.6-14.4 32-32 32h-64c-17.6 0-32-14.4-32-32v-64c0-17.6 14.4-32 32-32h64c17.6 0 32 14.4 32 32v64z"></path>
</symbol>
<symbol id="icon-twitter" viewBox="0 0 1024 1024">
	<title>twitter</title>
	<path class="path1" d="M1024 194.418c-37.676 16.708-78.164 28.002-120.66 33.080 43.372-26 76.686-67.17 92.372-116.23-40.596 24.078-85.556 41.56-133.41 50.98-38.32-40.83-92.922-66.34-153.346-66.34-116.022 0-210.088 94.058-210.088 210.078 0 16.466 1.858 32.5 5.44 47.878-174.6-8.764-329.402-92.4-433.018-219.506-18.084 31.028-28.446 67.116-28.446 105.618 0 72.888 37.088 137.192 93.46 174.866-34.438-1.092-66.832-10.542-95.154-26.278-0.020 0.876-0.020 1.756-0.020 2.642 0 101.788 72.418 186.696 168.522 206-17.626 4.8-36.188 7.372-55.348 7.372-13.538 0-26.698-1.32-39.528-3.772 26.736 83.46 104.32 144.206 196.252 145.896-71.9 56.35-162.486 89.934-260.916 89.934-16.958 0-33.68-0.994-50.116-2.94 92.972 59.61 203.402 94.394 322.042 94.394 386.422 0 597.736-320.124 597.736-597.744 0-9.108-0.206-18.168-0.61-27.18 41.056-29.62 76.672-66.62 104.836-108.748z"></path>
</symbol>
<symbol id="icon-twitter2" viewBox="0 0 1024 1024">
	<title>twitter2</title>
	<path class="path1" d="M853.342 0h-682.656c-93.874 0-170.686 76.81-170.686 170.69v682.624c0 93.936 76.812 170.686 170.686 170.686h682.656c93.876 0 170.658-76.75 170.658-170.69v-682.62c0-93.88-76.782-170.69-170.658-170.69zM766.478 381.48c0.252 5.632 0.38 11.296 0.38 16.988 0 173.51-132.070 373.588-373.584 373.588-74.15 0-143.168-21.738-201.276-58.996 10.272 1.218 20.724 1.84 31.322 1.84 61.518 0 118.134-20.992 163.072-56.21-57.458-1.054-105.948-39.020-122.658-91.184 8.018 1.532 16.244 2.36 24.704 2.36 11.976 0 23.578-1.61 34.592-4.61-60.064-12.066-105.326-65.132-105.326-128.75 0-0.554 0-1.104 0.012-1.652 17.7 9.834 37.948 15.742 59.47 16.424-35.232-23.546-58.414-63.736-58.414-109.292 0-24.064 6.476-46.62 17.78-66.010 64.76 79.44 161.51 131.712 270.634 137.19-2.238-9.612-3.4-19.632-3.4-29.924 0-72.512 58.792-131.298 131.304-131.298 37.766 0 71.892 15.944 95.842 41.462 29.908-5.886 58.008-16.814 83.38-31.862-9.804 30.662-30.624 56.394-57.732 72.644 26.56-3.174 51.866-10.232 75.412-20.674-17.594 26.328-39.854 49.454-65.514 67.966z"></path>
</symbol>
<symbol id="icon-feed2" viewBox="0 0 1024 1024">
	<title>feed2</title>
	<path class="path1" d="M136.294 750.93c-75.196 0-136.292 61.334-136.292 136.076 0 75.154 61.1 135.802 136.292 135.802 75.466 0 136.494-60.648 136.494-135.802-0.002-74.742-61.024-136.076-136.494-136.076zM0.156 347.93v196.258c127.784 0 247.958 49.972 338.458 140.512 90.384 90.318 140.282 211.036 140.282 339.3h197.122c-0.002-372.82-303.282-676.070-675.862-676.070zM0.388 0v196.356c455.782 0 826.756 371.334 826.756 827.644h196.856c0-564.47-459.254-1024-1023.612-1024z"></path>
</symbol>
<symbol id="icon-youtube3" viewBox="0 0 1024 1024">
	<title>youtube3</title>
	<path class="path1" d="M293.188 0l-69.188 137.234-69.188-137.234h-88.248l124.71 217.314 0.726-0.43v167.116h64v-167.116l0.726 0.43 124.71-217.314z"></path>
	<path class="path2" d="M480 128c17.346 0 32 14.654 32 32v128c0 17.346-14.654 32-32 32s-32-14.654-32-32v-128c0-17.346 14.654-32 32-32zM480 64c-52.8 0-96 43.2-96 96v128c0 52.8 43.2 96 96 96s96-43.2 96-96v-128c0-52.8-43.2-96-96-96v0z"></path>
	<path class="path3" d="M768 64v251.968c-27.922 23.288-64 37.332-64-45.634v-206.334h-64v219.324h0.096c0.986 52.91 12.142 148.168 127.904 70.712v29.964h64v-320h-64z"></path>
	<path class="path4" d="M864 704c-17.644 0-32 14.356-32 32v32h64v-32c0-17.644-14.356-32-32-32z"></path>
	<path class="path5" d="M576 736v168c21.666 21.666 64 24 64-8s0-118 0-150-32-42-64-10z"></path>
	<path class="path6" d="M1018.766 581.54c-2.792-36.862-16.046-66.942-39.778-90.244-23.726-23.298-54.080-35.994-91.068-38.080-69.784-3.478-229.452-5.216-369.716-5.216-140.266 0-311.294 1.738-381.078 5.216-36.986 2.086-67.342 14.782-91.068 38.080-23.728 23.302-36.988 53.382-39.778 90.244-4.188 75.116-6.28 102.352-6.28 139.91 0 37.56 2.092 93.894 6.28 169.012 2.792 36.862 16.050 66.944 39.778 90.244 23.726 23.298 54.082 35.992 91.068 38.080 69.782 3.476 240.81 5.214 381.078 5.214 140.266 0 299.934-1.738 369.716-5.214 36.988-2.088 67.342-14.782 91.068-38.080 23.73-23.3 36.986-53.382 39.778-90.244 3.49-62.598 5.234-118.934 5.234-169.012 0-50.076-1.744-77.314-5.234-139.91zM192 960h-64v-320h-64v-64h192v64h-64v320zM448 960h-64v-29.962c-121.666 68.294-126.918 2.198-127.904-50.712h-0.096v-175.326h64v176.334c0 38.666 36.078 34.924 64 11.634v-187.968h64v256zM704 895.086c0 66.892-68.504 86.402-128 34.39v30.524h-64v-384h64v104c64-64 128-40 128 24s0 121.172 0 191.086zM960 768v32h-128v64c0 17.644 14.356 32 32 32s32-14.356 32-32v-32h64v32c0 52.934-43.066 96-96 96s-96-43.066-96-96v-128c0-52.934 43.066-96 96-96s96 43.066 96 96v32z"></path>
</symbol>
<symbol id="icon-vimeo" viewBox="0 0 1024 1024">
	<title>vimeo</title>
	<path class="path1" d="M0 308.37l41.594 54.544c0 0 85.77-67.608 114.36-33.802 28.588 33.802 137.736 441.956 174.17 517.246 31.8 66.030 119.518 153.32 215.714 90.982 96.136-62.34 415.84-335.286 473.066-657.616 57.18-322.226-384.72-254.726-431.53 26.010 116.99-70.236 179.436 28.538 119.57 140.372-59.758 111.724-114.36 184.592-142.952 184.592-28.538 0-50.49-74.768-83.188-205.446-33.798-135.102-33.592-378.46-174.116-350.87-132.518 26.012-306.688 233.988-306.688 233.988z"></path>
</symbol>
<symbol id="icon-flickr2" viewBox="0 0 1024 1024">
	<title>flickr2</title>
	<path class="path1" d="M800 416c-70.58 0-128 57.42-128 128s57.42 128 128 128c70.58 0 128-57.42 128-128s-57.42-128-128-128zM800 320v0c123.71 0 224 100.288 224 224 0 123.71-100.29 224-224 224s-224-100.29-224-224c0-123.712 100.29-224 224-224zM0 544c0-123.712 100.288-224 224-224s224 100.288 224 224c0 123.712-100.288 224-224 224s-224-100.288-224-224z"></path>
</symbol>
<symbol id="icon-github3" viewBox="0 0 1024 1024">
	<title>github3</title>
	<path class="path1" d="M512 831.892c-19.154 0-38.308-9.916-58.142-29.75-7.81-7.81-7.81-20.474 0-28.286 7.81-7.808 20.474-7.808 28.286 0 12.206 12.21 21.972 18.144 29.856 18.144 7.882 0 17.65-5.934 29.858-18.142 7.812-7.808 20.472-7.808 28.286 0 7.81 7.81 7.81 20.474 0 28.286-19.836 19.832-38.99 29.748-58.144 29.748zM0 525.492c0 49.892 4.266 95.122 12.8 135.682s20.534 75.74 36 105.532c15.466 29.792 35.022 55.904 58.666 78.34s49.332 40.92 77.066 55.458c27.734 14.536 59.466 26.296 95.2 35.266 35.732 8.974 72.088 15.256 109.066 18.846s77.69 5.384 122.134 5.384c44.444 0 85.242-1.79 122.398-5.38s73.602-9.872 109.332-18.846c35.734-8.974 67.558-20.73 95.468-35.266 27.91-14.538 53.778-33.026 77.598-55.458 23.824-22.436 43.47-48.548 58.934-78.34 15.47-29.794 27.56-64.974 36.27-105.532 8.71-40.56 13.066-85.788 13.066-135.68 0-89.38-27.736-166.372-83.2-230.982 3.2-8.616 5.954-18.486 8.266-29.614 2.308-11.128 4.532-26.832 6.664-47.112 2.138-20.282 1.336-43.704-2.398-70.264-3.734-26.564-10.754-53.664-21.066-81.302l-8-1.618c-5.332-1.076-14.042-0.718-26.132 1.080-12.086 1.794-26.222 5.022-42.398 9.69-16.176 4.664-37.066 13.908-62.668 27.728-25.598 13.818-52.62 31.318-81.066 52.496-48.356-14.718-115.020-30.116-200-30.116-84.976 0-151.822 15.396-200.53 30.114-28.446-21.18-55.556-38.588-81.334-52.228-25.78-13.642-46.402-22.974-61.868-27.998-15.468-5.024-29.778-8.256-42.934-9.69-13.156-1.436-21.602-1.886-25.334-1.346-3.732 0.538-6.488 1.166-8.266 1.884-10.314 27.64-17.424 54.74-21.336 81.304-3.91 26.56-4.8 49.892-2.666 69.992 2.134 20.102 4.444 35.898 6.934 47.382 2.49 11.486 5.334 21.358 8.534 29.614-55.466 64.25-83.2 141.242-83.2 230.98zM136.536 639.404c0-58.022 21.332-110.638 64-157.856 12.8-14.406 27.646-25.312 44.534-32.712 16.89-7.402 36.088-11.606 57.6-12.606s42.044-0.8 61.6 0.6c19.556 1.402 43.734 3.302 72.534 5.702 28.798 2.404 53.688 3.602 74.666 3.602 20.976 0 45.868-1.2 74.664-3.602 28.806-2.4 52.982-4.3 72.536-5.702 19.56-1.4 40.090-1.6 61.602-0.6 21.512 1.002 40.802 5.204 57.868 12.606 17.066 7.4 32 18.306 44.8 32.712 42.664 47.218 64 99.834 64 157.856 0 34.012-3.554 64.324-10.668 90.934-7.11 26.612-16.090 48.916-26.934 66.922-10.844 18.008-26.048 33.218-45.598 45.62-19.558 12.406-38.492 22.010-56.8 28.81-18.312 6.8-41.958 12.104-70.934 15.906-28.982 3.796-54.934 6.102-77.872 6.9-22.934 0.8-51.82 1.2-86.664 1.2s-63.644-0.402-86.4-1.2c-22.756-0.798-48.622-3.104-77.6-6.9-28.978-3.802-52.622-9.104-70.934-15.906-18.31-6.802-37.244-16.404-56.8-28.81-19.556-12.404-34.756-27.612-45.6-45.62-10.846-18.006-19.824-40.31-26.934-66.922-7.11-26.61-10.666-56.922-10.666-90.934zM256 608.004c0-53.019 28.654-96 64-96s64 42.981 64 96c0 53.019-28.654 96-64 96s-64-42.981-64-96zM640 608.004c0-53.019 28.654-96 64-96s64 42.981 64 96c0 53.019-28.654 96-64 96s-64-42.981-64-96z"></path>
</symbol>
<symbol id="icon-linkedin2" viewBox="0 0 1024 1024">
	<title>linkedin2</title>
	<path class="path1" d="M384 384h177.106v90.782h2.532c24.64-44.194 84.958-90.782 174.842-90.782 186.946 0 221.52 116.376 221.52 267.734v308.266h-184.61v-273.278c0-65.184-1.334-149.026-96.028-149.026-96.148 0-110.82 70.986-110.82 144.292v278.012h-184.542v-576z"></path>
	<path class="path2" d="M64 384h192v576h-192v-576z"></path>
	<path class="path3" d="M256 224c0 53.019-42.981 96-96 96s-96-42.981-96-96c0-53.019 42.981-96 96-96s96 42.981 96 96z"></path>
</symbol>
<symbol id="icon-pinterest2" viewBox="0 0 1024 1024">
	<title>pinterest2</title>
	<path class="path1" d="M853.35 0h-682.704c-94.25 0-170.646 76.42-170.646 170.686v682.63c0 94.266 76.398 170.684 170.646 170.684h682.704c94.25 0 170.65-76.418 170.65-170.684v-682.63c0-94.266-76.4-170.686-170.65-170.686zM573.288 804.024c-51.886 0-100.652-26.958-117.35-58.796 0 0-25.674 97.766-31.896 121.71-11.562 44.468-42.766 100.218-63.64 134.226l-34.986-12.394c-4.478-40.508-8.518-102.644 1.774-146.876 9.298-39.954 60.040-254.5 60.040-254.5s-15.32-30.664-15.32-76.008c0-71.19 41.268-124.336 92.64-124.336 43.684 0 64.786 32.794 64.786 72.12 0 43.928-27.964 109.604-42.404 170.464-12.060 50.972 25.556 92.536 75.814 92.536 91.008 0 160.958-95.96 160.958-234.466 0-122.584-88.088-208.298-213.87-208.298-145.676 0-231.186 109.274-231.186 222.19 0 44.008 16.95 91.196 38.102 116.844 4.182 5.070 4.792 9.516 3.548 14.68-3.884 16.18-12.522 50.96-14.216 58.076-2.234 9.368-7.422 11.356-17.124 6.842-63.95-29.77-103.926-123.264-103.926-198.348 0-161.51 117.348-309.834 338.294-309.834 177.61 0 315.634 126.56 315.634 295.704 0.004 176.456-111.252 318.464-265.672 318.464z"></path>
</symbol>
<symbol id="icon-codepen" viewBox="0 0 1024 1024">
	<title>codepen</title>
	<path class="path1" d="M945.75 368.042l-448-298.666c-10.748-7.166-24.752-7.166-35.5 0l-448 298.666c-8.902 5.934-14.25 15.926-14.25 26.624v298.666c0 10.7 5.348 20.692 14.25 26.624l448 298.666c5.374 3.584 11.562 5.376 17.75 5.376s12.376-1.792 17.75-5.376l448-298.666c8.902-5.934 14.25-15.926 14.25-26.624v-298.666c0-10.698-5.348-20.69-14.25-26.624zM480 654.876l-166.312-110.876 166.312-110.874 166.312 110.874-166.312 110.876zM512 377.542v-221.75l358.31 238.876-166.31 110.874-192-128zM448 377.542l-192 128-166.312-110.874 358.312-238.876v221.75zM198.312 544l-134.312 89.542v-179.082l134.312 89.54zM256 582.458l192 128v221.748l-358.312-238.872 166.312-110.876zM512 710.458l192-128 166.312 110.876-358.312 238.874v-221.75zM761.688 544l134.312-89.54v179.084l-134.312-89.544z"></path>
  </symbol>
<symbol id="icon-mountain" viewBox="0 0 48 48">
  <title>mountain</title>  
  <path d="M45.7,29.8l-4.6-9.2c-5.9,0.6-7.9,1.8-8.6,2.7c-0.1,0.2-0.5,0.7-0.1,1.9c0.9,3.1,0,5.2-0.9,6.4c-2.2,3-7.2,4.3-16,4.3 c-2.7,0-4.6,0.6-5.2,1.5c-0.6,0.9-0.2,2.5,0,3l0,0h23.7c0.9,0,1.7-0.5,2.1-1.2c0.5-0.7,0.5-1.7,0.1-2.4l-1.6-3.3h8.7 c0.9,0,1.7-0.5,2.1-1.2C46.1,31.5,46.1,30.6,45.7,29.8z"/>
  <path d="M27.7,28.7c0.1-0.2,0.5-0.7,0.1-2.1c-0.8-2.8,0-4.8,0.8-6c1.6-2.4,4.8-3.8,10.3-4.6l-2.3-4.7c-0.4-0.9-1.3-1.4-2.3-1.4 s-1.8,0.5-2.3,1.4l-4.1,8.3L21.4,6.2c-0.4-0.9-1.3-1.4-2.3-1.4c-1,0-1.8,0.5-2.3,1.4L1.8,36.7c-0.4,0.8-0.3,1.7,0.1,2.5 c0.5,0.7,1.3,1.2,2.1,1.2h1.4c-0.3-1.5-0.4-3.6,0.9-5.6c1.6-2.5,4.7-3.8,9.3-3.8C24.6,31,27.1,29.6,27.7,28.7z"/>
</symbol>
</defs>
</svg>
