<?xml version="1.0" encoding="utf-8"?>
<!-- Generator: Adobe Illustrator 16.0.0, SVG Export Plug-In . SVG Version: 6.00 Build 0)  -->
<!DOCTYPE svg PUBLIC "-//W3C//DTD SVG 1.1//EN" "http://www.w3.org/Graphics/SVG/1.1/DTD/svg11.dtd">
<svg version="1.1" id="Layer_1" xmlns="http://www.w3.org/2000/svg" xmlns:xlink="http://www.w3.org/1999/xlink" x="0px" y="0px"
	 width="100px" height="100px" viewBox="0 0 100 100" enable-background="new 0 0 100 100" xml:space="preserve">
<path d="M74.068,45.57c-1.385,0-2.709,0.248-3.949,0.682l-4.051-7.361v-2.986h4.457c0.645,0,1.168,0.523,1.168,1.166
	c0,0.645-0.523,1.168-1.168,1.168c-1.104,0-2,0.895-2,2c0,1.104,0.896,2,2,2c2.85,0,5.168-2.318,5.168-5.168
	c0-2.52-1.816-4.617-4.207-5.068c-0.188-0.059-0.381-0.098-0.586-0.098h-6.832c-1.105,0-2,0.896-2,2v3.5H47.212l-0.973-2.166h3.16
	c1.105,0,2-0.896,2-2c0-1.105-0.895-2-2-2h-6.289c-0.002,0-0.006,0-0.008,0H36.9c-1.104,0-2,0.895-2,2c0,1.104,0.896,2,2,2h4.955
	l1.123,2.502c-0.27,0.176-0.502,0.408-0.662,0.699l-4.301,7.813c-1.238-0.434-2.563-0.682-3.947-0.682c-6.617,0-12,5.383-12,12
	s5.383,12,12,12c5.934,0,10.863-4.334,11.818-10h8.176c0.002,0,0.004,0.002,0.006,0.002c0.086,0,0.174-0.016,0.26-0.027
	c0.049-0.006,0.1-0.006,0.146-0.016c0.023-0.006,0.047-0.016,0.07-0.021c0.039-0.01,0.076-0.025,0.117-0.037
	c0.068-0.021,0.139-0.039,0.205-0.068c0.006-0.004,0.014-0.004,0.02-0.006c0.041-0.02,0.074-0.045,0.113-0.066
	c0.037-0.02,0.076-0.039,0.113-0.061c0.031-0.02,0.064-0.037,0.096-0.059c0.055-0.039,0.104-0.084,0.152-0.127
	c0.041-0.035,0.086-0.064,0.125-0.104c0.006-0.006,0.012-0.016,0.02-0.023c0.047-0.049,0.086-0.102,0.127-0.154
	c0.037-0.049,0.078-0.094,0.111-0.145c0.018-0.031,0.035-0.061,0.053-0.092c0.006-0.012,0.016-0.02,0.023-0.031l8.248-14.984
	l2.549,4.631c-2.768,2.199-4.549,5.588-4.549,9.389c0,6.617,5.383,12,12,12s12-5.383,12-12S80.685,45.57,74.068,45.57z
	 M60.683,41.404L54.25,53.092l-5.242-11.688H60.683z M44.904,42.031l6.074,13.539h-5.092c-0.502-2.979-2.098-5.584-4.367-7.389
	L44.904,42.031z"/>
</svg>
